<svg width="12" height="12" viewBox="0 0 12 12" fill="none" xmlns="http://www.w3.org/2000/svg">
<g clip-path="url(#clip0_151_488)">
<path d="M5.74975 0C6.16375 0 6.49975 0.336 6.49975 0.75V8.939L10.2198 5.22C10.5128 4.927 10.9867 4.927 11.2797 5.22C11.5727 5.513 11.5727 5.987 11.2797 6.28L6.27975 11.28L6.04875 11.434C6.04075 11.442 6.04475 11.44 6.03675 11.442C6.02875 11.447 6.03375 11.445 6.02175 11.445L5.74975 11.5L5.47775 11.445C5.46575 11.445 5.47075 11.447 5.46275 11.442C5.45475 11.44 5.45875 11.442 5.45075 11.434L5.21975 11.28L0.21975 6.28C-0.07325 5.987 -0.07325 5.513 0.21975 5.22C0.51275 4.927 0.98675 4.927 1.27975 5.22L4.99975 8.939V0.75C4.99975 0.336 5.33575 0 5.74975 0Z" fill="#8599FF"/>
</g>
<defs>
<clipPath id="clip0_151_488">
<rect width="11.5" height="11.5" fill="white"/>
</clipPath>
</defs>
</svg>
