<svg width="20" height="20" viewBox="0 0 20 20" fill="none" xmlns="http://www.w3.org/2000/svg">
<mask id="mask0_32_28448" style="mask-type:alpha" maskUnits="userSpaceOnUse" x="0" y="0" width="20" height="20">
<rect width="20" height="20" fill="#D9D9D9"/>
</mask>
<g mask="url(#mask0_32_28448)">
<path d="M2.75 10.5V4.62575C2.75 4.10129 2.93499 3.65756 3.30496 3.29454C3.67492 2.93151 4.11707 2.75 4.63142 2.75H9.24998V10.5H2.75ZM10.75 2.75H15.3685C15.8926 2.75 16.3372 2.93256 16.7023 3.29767C17.0674 3.66276 17.25 4.10823 17.25 4.63406V7.99998H10.75V2.75ZM10.75 17.25V9.49998H17.25V15.3685C17.25 15.8829 17.0674 16.325 16.7023 16.695C16.3372 17.065 15.8926 17.25 15.3685 17.25H10.75ZM2.75 12H9.24998V17.25H4.63142C4.11707 17.25 3.67492 17.065 3.30496 16.695C2.93499 16.325 2.75 15.882 2.75 15.3659V12Z" fill="#30EAD3"/>
</g>
</svg>
