<svg width="20" height="20" viewBox="0 0 20 20" fill="none" xmlns="http://www.w3.org/2000/svg">
<mask id="mask0_37_28589" style="mask-type:alpha" maskUnits="userSpaceOnUse" x="0" y="0" width="20" height="20">
<rect width="20" height="20" fill="#D9D9D9"/>
</mask>
<g mask="url(#mask0_37_28589)">
<path d="M4.72127 15.375V16.5C4.72127 16.6062 4.67943 16.6953 4.59575 16.7671C4.51208 16.839 4.41297 16.875 4.29843 16.875H3.50635C3.39181 16.875 3.2927 16.839 3.20902 16.7671C3.12534 16.6953 3.0835 16.6062 3.0835 16.5V10.0224L4.74377 5.9375C4.82854 5.6796 4.98679 5.47971 5.2185 5.33783C5.45022 5.19594 5.7081 5.125 5.99214 5.125H14.0402C14.3163 5.125 14.5669 5.19688 14.7921 5.34063C15.0173 5.48438 15.1721 5.68333 15.2565 5.9375L16.9168 10.0224V16.5C16.9168 16.6062 16.8749 16.6953 16.7913 16.7671C16.7076 16.839 16.6085 16.875 16.4939 16.875H15.7019C15.5873 16.875 15.4882 16.839 15.4045 16.7671C15.3209 16.6953 15.279 16.6062 15.279 16.5V15.375H4.72127ZM4.81904 9.23079H15.1812L14.0466 6.41665H5.95366L4.81904 9.23079ZM6.42831 13.2051C6.67598 13.2051 6.89142 13.1129 7.07464 12.9284C7.25788 12.7439 7.3495 12.5278 7.3495 12.2801C7.3495 12.0325 7.25725 11.817 7.07277 11.6338C6.88828 11.4506 6.6722 11.359 6.42454 11.359C6.17687 11.359 5.96142 11.4512 5.77818 11.6357C5.59496 11.8202 5.50335 12.0363 5.50335 12.2839C5.50335 12.5316 5.59559 12.747 5.78008 12.9303C5.96457 13.1135 6.18064 13.2051 6.42831 13.2051ZM13.5757 13.2051C13.8234 13.2051 14.0389 13.1129 14.2221 12.9284C14.4053 12.7439 14.4969 12.5278 14.4969 12.2801C14.4969 12.0325 14.4047 11.817 14.2202 11.6338C14.0357 11.4506 13.8196 11.359 13.572 11.359C13.3243 11.359 13.1089 11.4512 12.9256 11.6357C12.7424 11.8202 12.6508 12.0363 12.6508 12.2839C12.6508 12.5316 12.743 12.747 12.9275 12.9303C13.112 13.1135 13.3281 13.2051 13.5757 13.2051Z" fill="#19BAFF"/>
</g>
</svg>
