<svg width="20" height="20" viewBox="0 0 20 20" fill="none" xmlns="http://www.w3.org/2000/svg">
<mask id="mask0_32_28430" style="mask-type:alpha" maskUnits="userSpaceOnUse" x="0" y="0" width="20" height="20">
<rect width="20" height="20" fill="#D9D9D9"/>
</mask>
<g mask="url(#mask0_32_28430)">
<path d="M15.3909 17.5817L13.1056 15.2676L11.3348 17.0176L10.8028 16.4856C10.432 16.1149 10.2467 15.6758 10.2467 15.1683C10.2467 14.6608 10.432 14.2217 10.8028 13.851L13.9133 10.7404C14.2841 10.3697 14.7232 10.1843 15.2306 10.1843C15.7381 10.1843 16.1772 10.3697 16.5479 10.7404L17.08 11.2724L15.33 13.0433L17.6441 15.3285C17.8364 15.5208 17.9326 15.7417 17.9326 15.9912C17.9326 16.2407 17.8364 16.4615 17.6441 16.6539L16.7371 17.5817C16.5447 17.774 16.3204 17.8702 16.064 17.8702C15.8076 17.8702 15.5832 17.774 15.3909 17.5817ZM17.854 4.90706L9.04474 13.7244L9.44699 14.1555C9.67884 14.5262 9.77393 14.9236 9.73226 15.3478C9.6906 15.7719 9.50523 16.1485 9.17616 16.4776L8.64414 17.0096L6.89414 15.2596L4.58803 17.5945C4.39573 17.7868 4.17484 17.883 3.92539 17.883C3.67591 17.883 3.45503 17.7868 3.26272 17.5945L2.33485 16.6667C2.14254 16.4744 2.04639 16.2535 2.04639 16.004C2.04639 15.7545 2.14254 15.5337 2.33485 15.3414L4.64895 13.0353L2.89895 11.2644L3.41016 10.7532C3.73921 10.4242 4.11929 10.2353 4.55039 10.1867C4.98147 10.1381 5.38237 10.2367 5.7531 10.4824L6.23389 10.9343L15.072 2.08337H17.854V4.90706ZM6.20503 8.93269L2.14574 4.8654V2.08337H4.96943L8.99987 6.12183L6.20503 8.93269Z" fill="#FF3743"/>
</g>
</svg>
