<svg width="20" height="20" viewBox="0 0 20 20" fill="none" xmlns="http://www.w3.org/2000/svg">
<mask id="mask0_32_28273" style="mask-type:alpha" maskUnits="userSpaceOnUse" x="0" y="0" width="20" height="20">
<rect width="20" height="20" fill="#D9D9D9"/>
</mask>
<g mask="url(#mask0_32_28273)">
<path d="M9.99982 9.49355C9.14219 9.49355 8.42084 9.20102 7.83577 8.61597C7.25071 8.0309 6.95817 7.30955 6.95817 6.45192C6.95817 5.59429 7.25071 4.87294 7.83577 4.28788C8.42084 3.70281 9.14219 3.41028 9.99982 3.41028C10.8574 3.41028 11.5788 3.70281 12.1639 4.28788C12.7489 4.87294 13.0415 5.59429 13.0415 6.45192C13.0415 7.30955 12.7489 8.0309 12.1639 8.61597C11.5788 9.20102 10.8574 9.49355 9.99982 9.49355ZM3.7915 16.6939V14.5288C3.7915 14.1763 3.88282 13.8514 4.06544 13.5543C4.24807 13.2572 4.5013 13.0062 4.82515 12.8013C5.60721 12.3419 6.44097 11.9904 7.32644 11.7468C8.2119 11.5032 9.10239 11.3814 9.9979 11.3814C10.8934 11.3814 11.7845 11.5032 12.6713 11.7468C13.558 11.9904 14.3924 12.3419 15.1745 12.8013C15.4983 12.9923 15.7516 13.2398 15.9342 13.5439C16.1168 13.848 16.2081 14.1763 16.2081 14.5288V16.6939H3.7915Z" fill="#F540A8"/>
</g>
</svg>
