<svg width="20" height="20" viewBox="0 0 20 20" fill="none" xmlns="http://www.w3.org/2000/svg">
<mask id="mask0_37_28592" style="mask-type:alpha" maskUnits="userSpaceOnUse" x="0" y="0" width="20" height="20">
<rect width="20" height="20" fill="#D9D9D9"/>
</mask>
<g mask="url(#mask0_37_28592)">
<path d="M10 17C8.83333 15.9306 7.76042 14.9618 6.78125 14.0938C5.80208 13.2257 4.95833 12.3993 4.25 11.6146C3.54167 10.8299 2.98958 10.0625 2.59375 9.3125C2.19792 8.5625 2 7.77083 2 6.9375C2 5.6875 2.42361 4.63542 3.27083 3.78125C4.11806 2.92708 5.15972 2.5 6.39583 2.5C7.00694 2.5 7.59028 2.61458 8.14583 2.84375C8.70139 3.07292 9.19444 3.38889 9.625 3.79167L8.5 8.5H11L10 15.3958L12.5 7.5H10L11.4167 3.0625C11.75 2.88194 12.1007 2.74306 12.4688 2.64583C12.8368 2.54861 13.2153 2.5 13.6042 2.5C14.8403 2.5 15.8819 2.92708 16.7292 3.78125C17.5764 4.63542 18 5.6875 18 6.9375C18 7.78472 17.7882 8.60069 17.3646 9.38542C16.941 10.1701 16.3646 10.9618 15.6354 11.7604C14.9062 12.559 14.059 13.3819 13.0938 14.2292C12.1285 15.0764 11.0972 16 10 17Z" fill="#FF4D00"/>
</g>
</svg>
