<svg width="20" height="20" viewBox="0 0 20 20" fill="none" xmlns="http://www.w3.org/2000/svg">
<mask id="mask0_679_5607" style="mask-type:alpha" maskUnits="userSpaceOnUse" x="0" y="0" width="20" height="20">
<rect width="20" height="20" fill="#D9D9D9"/>
</mask>
<g mask="url(#mask0_679_5607)">
<path d="M4 12C4 10.6806 4.3125 9.47222 4.9375 8.375C5.5625 7.27778 6.25 6.32986 7 5.53125C7.75 4.73264 8.4375 4.11111 9.0625 3.66667L10 3V5.47917C10 5.89583 10.1458 6.25 10.4375 6.54167C10.7292 6.83333 11.0903 6.97917 11.5208 6.97917C11.7569 6.97917 11.9687 6.93056 12.1562 6.83333C12.3437 6.73611 12.5139 6.59722 12.6667 6.41667L13 6C13.875 6.5 14.5972 7.3125 15.1667 8.4375C15.7361 9.5625 16.0139 10.7431 16 11.9792C15.9861 13.0625 15.7257 14.0521 15.2187 14.9479C14.7118 15.8438 14 16.5694 13.0833 17.125C13.3056 16.8056 13.4722 16.4653 13.5833 16.1042C13.6944 15.7431 13.75 15.375 13.75 15C13.75 14.5417 13.6701 14.0972 13.5104 13.6667C13.3507 13.2361 13.1111 12.8472 12.7917 12.5L10 9.375L7.20833 12.5C6.88889 12.8472 6.64931 13.2361 6.48958 13.6667C6.32986 14.0972 6.25 14.5417 6.25 15C6.25 15.3889 6.30903 15.7674 6.42708 16.1354C6.54514 16.5035 6.72222 16.8472 6.95833 17.1667C6.04167 16.625 5.31944 15.8958 4.79167 14.9792C4.26389 14.0625 4 13.0694 4 12ZM10 11.625L11.6667 13.5C11.8611 13.7083 12.0069 13.941 12.1042 14.1979C12.2014 14.4549 12.25 14.7222 12.25 15C12.25 15.625 12.0312 16.1562 11.5937 16.5938C11.1562 17.0312 10.625 17.25 10 17.25C9.375 17.25 8.84375 17.0312 8.40625 16.5938C7.96875 16.1562 7.75 15.625 7.75 15C7.75 14.7222 7.79861 14.4549 7.89583 14.1979C7.99306 13.941 8.13889 13.7083 8.33333 13.5L10 11.625Z" fill="#FF7324"/>
</g>
</svg>
