<svg width="20" height="20" viewBox="0 0 20 20" fill="none" xmlns="http://www.w3.org/2000/svg">
<mask id="mask0_37_28586" style="mask-type:alpha" maskUnits="userSpaceOnUse" x="0" y="0" width="20" height="20">
<rect width="20" height="20" fill="#D9D9D9"/>
</mask>
<g mask="url(#mask0_37_28586)">
<path d="M6.87265 13.9967L9.99719 12.5592L13.1217 13.9967L13.5881 13.5304L9.99998 4.83656L6.41185 13.5304L6.87265 13.9967ZM10.0071 18.2499C8.87168 18.2499 7.80251 18.0351 6.79962 17.6054C5.79672 17.1757 4.91935 16.585 4.1675 15.8335C3.41564 15.082 2.82476 14.2052 2.39485 13.2034C1.96495 12.2015 1.75 11.131 1.75 9.99183C1.75 8.84914 1.96527 7.77825 2.39581 6.77917C2.82635 5.7801 3.41809 4.90347 4.17102 4.14929C4.92397 3.39513 5.80067 2.8067 6.80115 2.38402C7.80162 1.96134 8.87061 1.75 10.0081 1.75C11.1507 1.75 12.2214 1.96125 13.2204 2.38375C14.2194 2.80625 15.096 3.39451 15.8504 4.14854C16.6047 4.90258 17.1933 5.78062 17.6159 6.78265C18.0386 7.78466 18.25 8.85531 18.25 9.99458C18.25 11.1339 18.0387 12.2026 17.6162 13.2008C17.1937 14.1989 16.6055 15.0746 15.8517 15.8279C15.0978 16.5812 14.22 17.1732 13.2183 17.6039C12.2165 18.0346 11.1461 18.2499 10.0071 18.2499Z" fill="#1FC53A"/>
</g>
</svg>
