<svg width="20" height="20" viewBox="0 0 20 20" fill="none" xmlns="http://www.w3.org/2000/svg">
<mask id="mask0_32_28480" style="mask-type:alpha" maskUnits="userSpaceOnUse" x="0" y="0" width="20" height="20">
<rect width="20" height="20" fill="#D9D9D9"/>
</mask>
<g mask="url(#mask0_32_28480)">
<path d="M11.5 18.125V13.5737L9.95513 12.016L9.29806 15.3846L3.82373 14.2772L4.13944 12.7436L7.99361 13.4856L9.10579 7.91824L7.49998 8.67626V10.9583H5.87502V7.58653L9.78688 5.9359C9.9311 5.87072 10.0788 5.82345 10.23 5.79407C10.3811 5.7647 10.5337 5.75001 10.6875 5.75001C11.0945 5.75001 11.4452 5.8344 11.7396 6.00319C12.0339 6.172 12.2911 6.43749 12.5112 6.79967L12.8029 7.32051C13.2281 8.05983 13.7115 8.57639 14.2532 8.87019C14.7949 9.164 15.4466 9.31304 16.2083 9.3173V10.9423C15.3194 10.9156 14.5422 10.7326 13.8766 10.3934C13.211 10.0542 12.6341 9.51117 12.1458 8.76436L11.6506 11.3974L13.125 12.8878V18.125L11.5 18.125ZM12.0833 5.28842C11.5598 5.28842 11.1239 5.11428 10.7756 4.76599C10.4274 4.41769 10.2532 3.9818 10.2532 3.4583C10.2532 2.9348 10.4274 2.4989 10.7756 2.15061C11.1239 1.80232 11.5598 1.62817 12.0833 1.62817C12.6068 1.62817 13.0427 1.80232 13.391 2.15061C13.7393 2.4989 13.9135 2.9348 13.9135 3.4583C13.9135 3.9818 13.7393 4.41769 13.391 4.76599C13.0427 5.11428 12.6068 5.28842 12.0833 5.28842Z" fill="#9E70FF"/>
</g>
</svg>
