<svg width="20" height="20" viewBox="0 0 20 20" fill="none" xmlns="http://www.w3.org/2000/svg">
<mask id="mask0_32_28498" style="mask-type:alpha" maskUnits="userSpaceOnUse" x="0" y="0" width="20" height="20">
<rect width="20" height="20" fill="#D9D9D9"/>
</mask>
<g mask="url(#mask0_32_28498)">
<path d="M1.60425 16.75L3.92766 11.9087C4.08278 11.6031 4.31117 11.3625 4.61285 11.1868C4.91453 11.011 5.22362 10.9231 5.54012 10.9231C5.91085 10.9231 6.2359 11.0398 6.51529 11.2731C6.79468 11.5064 7.01182 11.7883 7.16673 12.1186L7.68594 13.2132C7.70945 13.2271 7.72512 13.2312 7.73294 13.2254C7.74076 13.2197 7.7438 13.2103 7.74206 13.1972L9.90552 6.11384C10.0754 5.56149 10.3834 5.11785 10.8294 4.78292C11.2754 4.44799 11.7799 4.28052 12.3429 4.28052C12.8793 4.28052 13.3801 4.44104 13.8454 4.76209C14.3107 5.08313 14.6256 5.50861 14.7901 6.03852L18.4375 16.75H1.60425ZM5.20152 8.45998C4.54371 8.45998 3.98137 8.23558 3.5145 7.78677C3.04762 7.33797 2.81419 6.77605 2.81419 6.10102C2.81419 5.43757 3.04762 4.87854 3.5145 4.42394C3.98137 3.96936 4.54371 3.74207 5.20152 3.74207C5.85933 3.74207 6.41221 3.96936 6.86017 4.42394C7.30812 4.87854 7.5321 5.43727 7.5321 6.10013C7.5321 6.77807 7.30812 7.34086 6.86017 7.7885C6.41221 8.23616 5.85933 8.45998 5.20152 8.45998Z" fill="#F2BE01"/>
</g>
</svg>
