<svg width="197" height="282" viewBox="0 0 197 282" fill="none" xmlns="http://www.w3.org/2000/svg">
<g clip-path="url(#clip0_152_492)">
<mask id="mask0_152_492" style="mask-type:luminance" maskUnits="userSpaceOnUse" x="0" y="0" width="197" height="282">
<path d="M197 0H0V282H197V0Z" fill="white"/>
</mask>
<g mask="url(#mask0_152_492)">
<path d="M197 0H0V282H197V0Z" fill="black" fill-opacity="0.75"/>
<path d="M39.6102 33.8409C39.5704 33.7026 39.5145 33.5804 39.4425 33.4743C39.3705 33.3663 39.2824 33.2754 39.1782 33.2015C39.0759 33.1257 38.9584 33.0679 38.8258 33.0281C38.6951 32.9883 38.5501 32.9684 38.391 32.9684C38.0935 32.9684 37.832 33.0423 37.6066 33.1901C37.383 33.3379 37.2087 33.5529 37.0836 33.8353C36.9586 34.1157 36.8961 34.4586 36.8961 34.8641C36.8961 35.2695 36.9576 35.6144 37.0808 35.8986C37.2039 36.1828 37.3782 36.3997 37.6037 36.5494C37.8292 36.6972 38.0954 36.7711 38.4023 36.7711C38.6808 36.7711 38.9186 36.7218 39.1157 36.6233C39.3146 36.5229 39.4662 36.3817 39.5704 36.1998C39.6765 36.0179 39.7295 35.8029 39.7295 35.5547L39.9796 35.5916H38.4791V34.6651H40.9147V35.3984C40.9147 35.9099 40.8067 36.3495 40.5907 36.7171C40.3747 37.0827 40.0772 37.365 39.6983 37.564C39.3193 37.761 38.8855 37.8595 38.3966 37.8595C37.851 37.8595 37.3716 37.7392 36.9586 37.4986C36.5455 37.2561 36.2234 36.9122 35.9923 36.467C35.763 36.0198 35.6484 35.4893 35.6484 34.8754C35.6484 34.4037 35.7166 33.983 35.853 33.6136C35.9913 33.2422 36.1846 32.9277 36.4328 32.67C36.681 32.4123 36.9699 32.2162 37.2996 32.0817C37.6293 31.9472 37.9864 31.8799 38.3711 31.8799C38.7007 31.8799 39.0077 31.9283 39.2919 32.0249C39.5761 32.1196 39.8281 32.2541 40.0479 32.4285C40.2695 32.6028 40.4505 32.8102 40.5907 33.0509C40.7309 33.2896 40.8209 33.5529 40.8607 33.8409H39.6102ZM43.7887 37.8652C43.3472 37.8652 42.9654 37.7714 42.6433 37.5839C42.3231 37.3944 42.0759 37.131 41.9016 36.7938C41.7272 36.4546 41.6401 36.0615 41.6401 35.6144C41.6401 35.1634 41.7272 34.7693 41.9016 34.4321C42.0759 34.0929 42.3231 33.8296 42.6433 33.642C42.9654 33.4525 43.3472 33.3578 43.7887 33.3578C44.2301 33.3578 44.611 33.4525 44.9312 33.642C45.2532 33.8296 45.5015 34.0929 45.6758 34.4321C45.8501 34.7693 45.9372 35.1634 45.9372 35.6144C45.9372 36.0615 45.8501 36.4546 45.6758 36.7938C45.5015 37.131 45.2532 37.3944 44.9312 37.5839C44.611 37.7714 44.2301 37.8652 43.7887 37.8652ZM43.7943 36.9274C43.9952 36.9274 44.1629 36.8705 44.2974 36.7568C44.4319 36.6413 44.5333 36.484 44.6015 36.2851C44.6716 36.0861 44.7066 35.8597 44.7066 35.6058C44.7066 35.3519 44.6716 35.1255 44.6015 34.9266C44.5333 34.7276 44.4319 34.5704 44.2974 34.4548C44.1629 34.3392 43.9952 34.2814 43.7943 34.2814C43.5916 34.2814 43.4211 34.3392 43.2828 34.4548C43.1464 34.5704 43.0431 34.7276 42.973 34.9266C42.9048 35.1255 42.8707 35.3519 42.8707 35.6058C42.8707 35.8597 42.9048 36.0861 42.973 36.2851C43.0431 36.484 43.1464 36.6413 43.2828 36.7568C43.4211 36.8705 43.5916 36.9274 43.7943 36.9274ZM48.333 37.851C48.0015 37.851 47.7012 37.7658 47.4321 37.5952C47.165 37.4228 46.9528 37.1699 46.7955 36.8364C46.6402 36.5011 46.5625 36.0899 46.5625 35.603C46.5625 35.1028 46.643 34.6869 46.804 34.3553C46.9651 34.0219 47.1792 33.7727 47.4463 33.6079C47.7154 33.4412 48.01 33.3578 48.3302 33.3578C48.5746 33.3578 48.7783 33.3995 48.9412 33.4828C49.1061 33.5643 49.2387 33.6666 49.3391 33.7898C49.4414 33.911 49.5191 34.0304 49.5722 34.1479H49.6091V31.9595H50.817V37.78H49.6233V37.0808H49.5722C49.5153 37.2021 49.4348 37.3224 49.3306 37.4418C49.2283 37.5592 49.0947 37.6568 48.9299 37.7345C48.7669 37.8122 48.568 37.851 48.333 37.851ZM48.7167 36.8876C48.9119 36.8876 49.0767 36.8345 49.2112 36.7284C49.3476 36.6204 49.4519 36.4698 49.5239 36.2765C49.5977 36.0833 49.6347 35.8569 49.6347 35.5973C49.6347 35.3377 49.5987 35.1123 49.5267 34.9209C49.4547 34.7295 49.3505 34.5818 49.2141 34.4775C49.0777 34.3733 48.9119 34.3212 48.7167 34.3212C48.5178 34.3212 48.3501 34.3752 48.2137 34.4832C48.0773 34.5912 47.974 34.7409 47.9039 34.9323C47.8338 35.1236 47.7987 35.3453 47.7987 35.5973C47.7987 35.8512 47.8338 36.0757 47.9039 36.2709C47.9759 36.4641 48.0792 36.6157 48.2137 36.7256C48.3501 36.8336 48.5178 36.8876 48.7167 36.8876ZM53.6874 31.9595H55.205L56.8079 35.8701H56.8762L58.4791 31.9595H59.9967V37.78H58.803V33.9916H58.7547L57.2485 37.7516H56.4356L54.9294 33.9774H54.8811V37.78H53.6874V31.9595ZM62.9602 37.8652C62.5187 37.8652 62.137 37.7714 61.8149 37.5839C61.4947 37.3944 61.2474 37.131 61.0731 36.7938C60.8988 36.4546 60.8116 36.0615 60.8116 35.6144C60.8116 35.1634 60.8988 34.7693 61.0731 34.4321C61.2474 34.0929 61.4947 33.8296 61.8149 33.642C62.137 33.4525 62.5187 33.3578 62.9602 33.3578C63.4017 33.3578 63.7825 33.4525 64.1027 33.642C64.4248 33.8296 64.673 34.0929 64.8473 34.4321C65.0216 34.7693 65.1088 35.1634 65.1088 35.6144C65.1088 36.0615 65.0216 36.4546 64.8473 36.7938C64.673 37.131 64.4248 37.3944 64.1027 37.5839C63.7825 37.7714 63.4017 37.8652 62.9602 37.8652ZM62.9659 36.9274C63.1667 36.9274 63.3344 36.8705 63.4689 36.7568C63.6035 36.6413 63.7048 36.484 63.773 36.2851C63.8431 36.0861 63.8782 35.8597 63.8782 35.6058C63.8782 35.3519 63.8431 35.1255 63.773 34.9266C63.7048 34.7276 63.6035 34.5704 63.4689 34.4548C63.3344 34.3392 63.1667 34.2814 62.9659 34.2814C62.7632 34.2814 62.5926 34.3392 62.4543 34.4548C62.3179 34.5704 62.2147 34.7276 62.1446 34.9266C62.0763 35.1255 62.0422 35.3519 62.0422 35.6058C62.0422 35.8597 62.0763 36.0861 62.1446 36.2851C62.2147 36.484 62.3179 36.6413 62.4543 36.7568C62.5926 36.8705 62.7632 36.9274 62.9659 36.9274ZM67.5046 37.851C67.173 37.851 66.8727 37.7658 66.6037 37.5952C66.3365 37.4228 66.1243 37.1699 65.9671 36.8364C65.8117 36.5011 65.734 36.0899 65.734 35.603C65.734 35.1028 65.8145 34.6869 65.9756 34.3553C66.1366 34.0219 66.3507 33.7727 66.6179 33.6079C66.8869 33.4412 67.1816 33.3578 67.5018 33.3578C67.7462 33.3578 67.9498 33.3995 68.1128 33.4828C68.2776 33.5643 68.4103 33.6666 68.5107 33.7898C68.613 33.911 68.6907 34.0304 68.7437 34.1479H68.7807V31.9595H69.9885V37.78H68.7949V37.0808H68.7437C68.6869 37.2021 68.6064 37.3224 68.5021 37.4418C68.3998 37.5592 68.2663 37.6568 68.1014 37.7345C67.9385 37.8122 67.7395 37.851 67.5046 37.851ZM67.8883 36.8876C68.0834 36.8876 68.2483 36.8345 68.3828 36.7284C68.5192 36.6204 68.6234 36.4698 68.6954 36.2765C68.7693 36.0833 68.8062 35.8569 68.8062 35.5973C68.8062 35.3377 68.7702 35.1123 68.6982 34.9209C68.6262 34.7295 68.522 34.5818 68.3856 34.4775C68.2492 34.3733 68.0834 34.3212 67.8883 34.3212C67.6893 34.3212 67.5216 34.3752 67.3852 34.4832C67.2488 34.5912 67.1456 34.7409 67.0755 34.9323C67.0053 35.1236 66.9703 35.3453 66.9703 35.5973C66.9703 35.8512 67.0053 36.0757 67.0755 36.2709C67.1474 36.4641 67.2507 36.6157 67.3852 36.7256C67.5216 36.8336 67.6893 36.8876 67.8883 36.8876ZM72.9734 37.8652C72.5243 37.8652 72.1378 37.7743 71.8138 37.5924C71.4917 37.4086 71.2435 37.149 71.0692 36.8137C70.8949 36.4764 70.8077 36.0776 70.8077 35.6172C70.8077 35.1682 70.8949 34.7741 71.0692 34.4349C71.2435 34.0958 71.4889 33.8315 71.8053 33.642C72.1236 33.4525 72.4968 33.3578 72.925 33.3578C73.213 33.3578 73.4811 33.4042 73.7293 33.4971C73.9794 33.588 74.1973 33.7254 74.383 33.9091C74.5706 34.0929 74.7165 34.3241 74.8207 34.6026C74.9249 34.8792 74.977 35.2032 74.977 35.5746V35.9071H71.2909V35.1568H73.8373C73.8373 34.9825 73.7994 34.8281 73.7236 34.6935C73.6479 34.559 73.5427 34.4539 73.4082 34.3781C73.2756 34.3004 73.1211 34.2616 72.9449 34.2616C72.7611 34.2616 72.5982 34.3042 72.4561 34.3894C72.3159 34.4728 72.206 34.5855 72.1264 34.7276C72.0469 34.8679 72.0061 35.0242 72.0042 35.1966V35.9099C72.0042 36.1259 72.044 36.3125 72.1236 36.4698C72.2051 36.6271 72.3197 36.7483 72.4675 36.8336C72.6153 36.9188 72.7905 36.9615 72.9932 36.9615C73.1278 36.9615 73.2509 36.9425 73.3627 36.9046C73.4745 36.8667 73.5702 36.8099 73.6498 36.7341C73.7293 36.6583 73.79 36.5655 73.8316 36.4556L74.9514 36.5295C74.8946 36.7985 74.778 37.0335 74.6018 37.2343C74.4275 37.4332 74.2021 37.5886 73.9254 37.7004C73.6507 37.8103 73.3333 37.8652 72.9734 37.8652Z" fill="white" fill-opacity="0.5"/>
<path d="M40.8372 116.126V121.946H39.7743L37.242 118.283H37.1993V121.946H35.9688V116.126H37.0487L39.5611 119.786H39.6122V116.126H40.8372ZM43.8036 122.032C43.3621 122.032 42.9802 121.938 42.6581 121.75C42.3379 121.561 42.0908 121.297 41.9165 120.96C41.7421 120.621 41.6549 120.228 41.6549 119.781C41.6549 119.33 41.7421 118.936 41.9165 118.598C42.0908 118.259 42.3379 117.996 42.6581 117.808C42.9802 117.619 43.3621 117.524 43.8036 117.524C44.245 117.524 44.6257 117.619 44.9459 117.808C45.268 117.996 45.5163 118.259 45.6907 118.598C45.865 118.936 45.952 119.33 45.952 119.781C45.952 120.228 45.865 120.621 45.6907 120.96C45.5163 121.297 45.268 121.561 44.9459 121.75C44.6257 121.938 44.245 122.032 43.8036 122.032ZM43.8092 121.094C44.0101 121.094 44.1777 121.037 44.3122 120.923C44.4467 120.808 44.5481 120.65 44.6163 120.451C44.6864 120.252 44.7215 120.026 44.7215 119.772C44.7215 119.518 44.6864 119.292 44.6163 119.093C44.5481 118.894 44.4467 118.737 44.3122 118.621C44.1777 118.506 44.0101 118.448 43.8092 118.448C43.6065 118.448 43.4359 118.506 43.2976 118.621C43.1612 118.737 43.058 118.894 42.9879 119.093C42.9197 119.292 42.8855 119.518 42.8855 119.772C42.8855 120.026 42.9197 120.252 42.9879 120.451C43.058 120.65 43.1612 120.808 43.2976 120.923C43.4359 121.037 43.6065 121.094 43.8092 121.094ZM48.6143 121.946V116.126H50.9106C51.3502 116.126 51.7253 116.204 52.0361 116.362C52.3487 116.517 52.5866 116.738 52.7495 117.024C52.9144 117.308 52.9967 117.643 52.9967 118.027C52.9967 118.414 52.9134 118.746 52.7467 119.025C52.5799 119.301 52.3383 119.514 52.0219 119.661C51.7073 119.809 51.3265 119.883 50.8794 119.883H49.3419V118.894H50.6805C50.9155 118.894 51.1105 118.862 51.2659 118.797C51.4212 118.733 51.5368 118.636 51.6126 118.507C51.6903 118.379 51.7291 118.219 51.7291 118.027C51.7291 117.834 51.6903 117.671 51.6126 117.538C51.5368 117.406 51.4204 117.305 51.2631 117.237C51.1078 117.167 50.9116 117.132 50.6747 117.132H49.8449V121.946H48.6143ZM51.7576 119.298L53.2042 121.946H51.8457L50.4303 119.298H51.7576ZM55.7627 122.032C55.3136 122.032 54.9271 121.941 54.6031 121.759C54.281 121.575 54.0329 121.315 53.8586 120.98C53.6843 120.643 53.597 120.244 53.597 119.784C53.597 119.334 53.6843 118.94 53.8586 118.601C54.0329 118.262 54.2783 117.998 54.5947 117.808C54.913 117.619 55.2863 117.524 55.7145 117.524C56.0024 117.524 56.2705 117.571 56.5187 117.663C56.7688 117.754 56.9866 117.892 57.1723 118.075C57.3599 118.259 57.5059 118.49 57.6101 118.769C57.7143 119.046 57.7663 119.37 57.7663 119.741V120.073H54.0802V119.323H56.6266C56.6266 119.149 56.5888 118.994 56.5131 118.86C56.4373 118.725 56.332 118.62 56.1975 118.544C56.0649 118.467 55.9105 118.428 55.7342 118.428C55.5505 118.428 55.3875 118.47 55.2454 118.556C55.1052 118.639 54.9953 118.752 54.9157 118.894C54.8362 119.034 54.7954 119.19 54.7935 119.363V120.076C54.7935 120.292 54.8333 120.479 54.9129 120.636C54.9944 120.793 55.1091 120.915 55.2569 121C55.4047 121.085 55.5798 121.128 55.7826 121.128C55.9171 121.128 56.0403 121.109 56.1521 121.071C56.2639 121.033 56.3595 120.976 56.4391 120.9C56.5186 120.825 56.5793 120.732 56.621 120.622L57.7407 120.696C57.6839 120.965 57.5674 121.2 57.3911 121.401C57.2168 121.6 56.9914 121.755 56.7147 121.867C56.44 121.977 56.1227 122.032 55.7627 122.032ZM60.5287 122.032C60.0816 122.032 59.6971 121.937 59.375 121.747C59.0548 121.556 58.8084 121.291 58.6359 120.952C58.4654 120.612 58.3802 120.222 58.3802 119.781C58.3802 119.334 58.4665 118.941 58.6389 118.604C58.8132 118.265 59.0604 118.001 59.3806 117.811C59.7008 117.62 60.0816 117.524 60.523 117.524C60.9039 117.524 61.2373 117.593 61.5234 117.732C61.8095 117.87 62.0361 118.064 62.2028 118.314C62.3695 118.564 62.4614 118.858 62.4785 119.195H61.3359C61.3037 118.977 61.2185 118.802 61.0802 118.669C60.9438 118.535 60.7646 118.468 60.5429 118.468C60.3554 118.468 60.1915 118.519 60.0513 118.621C59.913 118.722 59.805 118.868 59.7273 119.062C59.6496 119.255 59.6108 119.489 59.6108 119.764C59.6108 120.042 59.6487 120.279 59.7244 120.474C59.8021 120.669 59.9111 120.818 60.0513 120.92C60.1915 121.023 60.3554 121.074 60.5429 121.074C60.6813 121.074 60.8054 121.045 60.9152 120.989C61.027 120.932 61.1189 120.849 61.1909 120.741C61.2648 120.631 61.3131 120.5 61.3359 120.346H62.4785C62.4595 120.68 62.3686 120.973 62.2056 121.227C62.0446 121.479 61.822 121.676 61.5378 121.818C61.2535 121.96 60.9171 122.032 60.5287 122.032ZM65.2259 122.032C64.7844 122.032 64.4026 121.938 64.0805 121.75C63.7603 121.561 63.5131 121.297 63.3388 120.96C63.1645 120.621 63.0774 120.228 63.0774 119.781C63.0774 119.33 63.1645 118.936 63.3388 118.598C63.5131 118.259 63.7603 117.996 64.0805 117.808C64.4026 117.619 64.7844 117.524 65.2259 117.524C65.6673 117.524 66.0483 117.619 66.3685 117.808C66.6906 117.996 66.9387 118.259 67.113 118.598C67.2873 118.936 67.3744 119.33 67.3744 119.781C67.3744 120.228 67.2873 120.621 67.113 120.96C66.9387 121.297 66.6906 121.561 66.3685 121.75C66.0483 121.938 65.6673 122.032 65.2259 122.032ZM65.2316 121.094C65.4324 121.094 65.6001 121.037 65.7346 120.923C65.8691 120.808 65.9705 120.65 66.0387 120.451C66.1088 120.252 66.1439 120.026 66.1439 119.772C66.1439 119.518 66.1088 119.292 66.0387 119.093C65.9705 118.894 65.8691 118.737 65.7346 118.621C65.6001 118.506 65.4324 118.448 65.2316 118.448C65.0288 118.448 64.8584 118.506 64.7201 118.621C64.5837 118.737 64.4804 118.894 64.4103 119.093C64.3421 119.292 64.3079 119.518 64.3079 119.772C64.3079 120.026 64.3421 120.252 64.4103 120.451C64.4804 120.65 64.5837 120.808 64.7201 120.923C64.8584 121.037 65.0288 121.094 65.2316 121.094ZM68.1617 121.946V117.581H69.3724V121.946H68.1617ZM68.7699 117.018C68.5899 117.018 68.4356 116.959 68.3067 116.839C68.1798 116.718 68.1163 116.573 68.1163 116.404C68.1163 116.238 68.1798 116.095 68.3067 115.975C68.4356 115.854 68.5899 115.793 68.7699 115.793C68.9499 115.793 69.1034 115.854 69.2304 115.975C69.3592 116.095 69.4235 116.238 69.4235 116.404C69.4235 116.573 69.3592 116.718 69.2304 116.839C69.1034 116.959 68.9499 117.018 68.7699 117.018ZM71.553 116.126V121.946H70.3423V116.126H71.553Z" fill="white" fill-opacity="0.5"/>
<path d="M35.9688 158.153H37.4865L39.0893 162.064H39.1576L40.7604 158.153H42.278V163.974H41.0844V160.185H41.036L39.5299 163.945H38.7169L37.2108 160.171H37.1624V163.974H35.9688V158.153ZM45.2416 164.059C44.8002 164.059 44.4183 163.965 44.0962 163.778C43.776 163.588 43.5288 163.325 43.3545 162.987C43.1802 162.648 43.0929 162.255 43.0929 161.808C43.0929 161.357 43.1802 160.963 43.3545 160.626C43.5288 160.287 43.776 160.023 44.0962 159.836C44.4183 159.646 44.8002 159.551 45.2416 159.551C45.6831 159.551 46.0638 159.646 46.384 159.836C46.7061 160.023 46.9544 160.287 47.1287 160.626C47.303 160.963 47.3901 161.357 47.3901 161.808C47.3901 162.255 47.303 162.648 47.1287 162.987C46.9544 163.325 46.7061 163.588 46.384 163.778C46.0638 163.965 45.6831 164.059 45.2416 164.059ZM45.2472 163.121C45.448 163.121 45.6157 163.064 45.7502 162.951C45.8848 162.835 45.9861 162.678 46.0543 162.479C46.1244 162.28 46.1595 162.053 46.1595 161.799C46.1595 161.546 46.1244 161.319 46.0543 161.12C45.9861 160.921 45.8848 160.764 45.7502 160.648C45.6157 160.533 45.448 160.475 45.2472 160.475C45.0445 160.475 44.8739 160.533 44.7356 160.648C44.5992 160.764 44.496 160.921 44.4259 161.12C44.3576 161.319 44.3236 161.546 44.3236 161.799C44.3236 162.053 44.3576 162.28 44.4259 162.479C44.496 162.678 44.5992 162.835 44.7356 162.951C44.8739 163.064 45.0445 163.121 45.2472 163.121ZM49.3881 161.45V163.974H48.1773V159.608H49.3312V160.378H49.3824C49.4791 160.125 49.6411 159.924 49.8684 159.776C50.0958 159.626 50.3715 159.551 50.6954 159.551C50.9986 159.551 51.2628 159.618 51.4883 159.75C51.7137 159.883 51.889 160.072 52.014 160.319C52.1391 160.563 52.2016 160.855 52.2016 161.194V163.974H50.9909V161.41C50.9928 161.143 50.9247 160.935 50.7864 160.785C50.6481 160.633 50.4576 160.558 50.215 160.558C50.0521 160.558 49.9081 160.593 49.7831 160.663C49.6599 160.733 49.5633 160.835 49.4932 160.97C49.425 161.102 49.39 161.262 49.3881 161.45ZM55.1452 164.059C54.6962 164.059 54.3097 163.968 53.9857 163.786C53.6636 163.602 53.4154 163.343 53.2411 163.007C53.0668 162.67 52.9796 162.271 52.9796 161.811C52.9796 161.362 53.0668 160.968 53.2411 160.629C53.4154 160.289 53.6608 160.025 53.9772 159.836C54.2955 159.646 54.6688 159.551 55.097 159.551C55.385 159.551 55.653 159.598 55.9012 159.691C56.1513 159.782 56.3693 159.919 56.555 160.103C56.7426 160.287 56.8883 160.518 56.9926 160.796C57.0968 161.073 57.1489 161.397 57.1489 161.768V162.101H53.4628V161.35H56.0093C56.0093 161.176 55.9713 161.022 55.8955 160.887C55.8197 160.753 55.7147 160.648 55.5802 160.572C55.4475 160.494 55.293 160.455 55.1168 160.455C54.933 160.455 54.7701 160.498 54.628 160.583C54.4878 160.666 54.3779 160.779 54.2983 160.921C54.2187 161.062 54.178 161.218 54.1761 161.39V162.104C54.1761 162.32 54.2159 162.506 54.2955 162.663C54.3769 162.821 54.4917 162.942 54.6395 163.027C54.7872 163.113 54.9624 163.155 55.1651 163.155C55.2997 163.155 55.4228 163.136 55.5346 163.098C55.6464 163.06 55.7421 163.004 55.8216 162.928C55.9012 162.852 55.9618 162.759 56.0035 162.649L57.1233 162.723C57.0664 162.992 56.95 163.227 56.7738 163.428C56.5995 163.627 56.374 163.782 56.0974 163.894C55.8227 164.004 55.5052 164.059 55.1452 164.059ZM58.5692 165.611C58.4157 165.611 58.2717 165.598 58.1372 165.574C58.0045 165.551 57.8947 165.522 57.8075 165.486L58.0803 164.582C58.2224 164.625 58.3504 164.649 58.4641 164.653C58.5797 164.657 58.6792 164.63 58.7625 164.573C58.8478 164.516 58.9168 164.42 58.9699 164.283L59.041 164.099L57.475 159.608H58.7482L59.6521 162.814H59.6974L60.6097 159.608H61.8915L60.1949 164.445C60.1134 164.68 60.0026 164.885 59.8624 165.059C59.7241 165.235 59.5487 165.371 59.3365 165.466C59.1243 165.562 58.8685 165.611 58.5692 165.611Z" fill="white" fill-opacity="0.5"/>
<path d="M38.2973 205.432H39.5137V209.491C39.5137 209.866 39.4293 210.192 39.2607 210.469C39.094 210.745 38.8619 210.958 38.5644 211.108C38.267 211.258 37.9212 211.333 37.5271 211.333C37.1766 211.333 36.8583 211.271 36.5722 211.148C36.288 211.023 36.0625 210.833 35.8958 210.579C35.729 210.324 35.6466 210.002 35.6485 209.616H36.8734C36.8772 209.769 36.9085 209.901 36.9672 210.011C37.0278 210.119 37.1103 210.202 37.2145 210.261C37.3206 210.318 37.4456 210.346 37.5896 210.346C37.7412 210.346 37.8691 210.314 37.9733 210.25C38.0794 210.183 38.1599 210.087 38.2149 209.96C38.2698 209.833 38.2973 209.677 38.2973 209.491V205.432ZM43.3078 209.394V206.888H44.5185V211.253H43.3561V210.46H43.3106C43.2121 210.716 43.0482 210.921 42.8189 211.077C42.5916 211.232 42.314 211.31 41.9862 211.31C41.6944 211.31 41.4377 211.243 41.216 211.111C40.9943 210.978 40.821 210.79 40.6959 210.545C40.5728 210.301 40.5103 210.008 40.5084 209.667V206.888H41.7191V209.451C41.721 209.709 41.7901 209.912 41.9265 210.062C42.0629 210.212 42.2458 210.287 42.475 210.287C42.6209 210.287 42.7573 210.253 42.8843 210.187C43.0112 210.119 43.1135 210.019 43.1912 209.886C43.2708 209.753 43.3096 209.589 43.3078 209.394ZM45.4869 211.253V206.888H46.6407V207.658H46.6919C46.7828 207.402 46.9344 207.2 47.1466 207.052C47.3588 206.905 47.6127 206.831 47.9083 206.831C48.2076 206.831 48.4625 206.906 48.6728 207.055C48.8831 207.203 49.0233 207.404 49.0934 207.658H49.1389C49.2279 207.408 49.389 207.208 49.622 207.058C49.8569 206.907 50.1345 206.831 50.4547 206.831C50.8621 206.831 51.1927 206.961 51.4466 207.22C51.7024 207.478 51.8303 207.843 51.8303 208.317V211.253H50.6224V208.556C50.6224 208.313 50.558 208.131 50.4291 208.01C50.3003 207.889 50.1393 207.828 49.946 207.828C49.7262 207.828 49.5547 207.898 49.4316 208.039C49.3084 208.177 49.2469 208.36 49.2469 208.587V211.253H48.0731V208.53C48.0731 208.316 48.0115 208.146 47.8884 208.019C47.7671 207.892 47.607 207.828 47.4081 207.828C47.2736 207.828 47.1523 207.862 47.0443 207.931C46.9382 207.997 46.8539 208.091 46.7914 208.212C46.7288 208.331 46.6976 208.472 46.6976 208.633V211.253H45.4869ZM52.7866 212.89V206.888H53.9802V207.621H54.0342C54.0873 207.503 54.164 207.384 54.2644 207.263C54.3668 207.14 54.4994 207.037 54.6623 206.956C54.8272 206.872 55.0318 206.831 55.2762 206.831C55.5945 206.831 55.8882 206.914 56.1572 207.081C56.4263 207.246 56.6413 207.495 56.8024 207.828C56.9634 208.16 57.0439 208.576 57.0439 209.076C57.0439 209.563 56.9653 209.974 56.8081 210.309C56.6527 210.643 56.4405 210.896 56.1714 211.068C55.9043 211.239 55.6049 211.324 55.2734 211.324C55.0384 211.324 54.8385 211.285 54.6737 211.207C54.5108 211.13 54.3772 211.032 54.273 210.915C54.1688 210.795 54.0892 210.675 54.0342 210.554H53.9973V212.89H52.7866ZM53.9717 209.07C53.9717 209.33 54.0077 209.556 54.0797 209.75C54.1517 209.943 54.2559 210.093 54.3923 210.201C54.5288 210.307 54.6945 210.361 54.8897 210.361C55.0867 210.361 55.2535 210.307 55.3899 210.199C55.5263 210.089 55.6296 209.937 55.6997 209.744C55.7717 209.549 55.8077 209.324 55.8077 209.07C55.8077 208.818 55.7726 208.597 55.7025 208.405C55.6324 208.214 55.5291 208.064 55.3927 207.956C55.2563 207.848 55.0886 207.794 54.8897 207.794C54.6926 207.794 54.5259 207.846 54.3895 207.951C54.255 208.055 54.1517 208.202 54.0797 208.394C54.0077 208.585 53.9717 208.811 53.9717 209.07ZM59.7261 211.253V205.432H60.9567V207.834H63.4548V205.432H64.6826V211.253H63.4548V208.849H60.9567V211.253H59.7261ZM67.6639 211.338C67.2148 211.338 66.8283 211.247 66.5043 211.065C66.1822 210.882 65.934 210.622 65.7597 210.287C65.5854 209.949 65.4982 209.551 65.4982 209.09C65.4982 208.641 65.5854 208.247 65.7597 207.908C65.934 207.569 66.1794 207.304 66.4958 207.115C66.8141 206.925 67.1873 206.831 67.6155 206.831C67.9035 206.831 68.1716 206.877 68.4198 206.97C68.6699 207.061 68.8878 207.198 69.0735 207.382C69.2611 207.566 69.407 207.797 69.5112 208.076C69.6154 208.352 69.6675 208.676 69.6675 209.048V209.38H65.9814V208.63H68.5278C68.5278 208.455 68.4899 208.301 68.4141 208.166C68.3384 208.032 68.2332 207.927 68.0987 207.851C67.9661 207.773 67.8116 207.735 67.6354 207.735C67.4517 207.735 67.2887 207.777 67.1466 207.862C67.0064 207.946 66.8965 208.059 66.8169 208.201C66.7374 208.341 66.6966 208.497 66.6947 208.67V209.383C66.6947 209.599 66.7345 209.786 66.8141 209.943C66.8956 210.1 67.0102 210.221 67.158 210.307C67.3058 210.392 67.481 210.434 67.6837 210.434C67.8183 210.434 67.9414 210.415 68.0532 210.378C68.165 210.34 68.2607 210.283 68.3403 210.207C68.4198 210.131 68.4805 210.038 68.5221 209.929L69.6419 210.002C69.5851 210.271 69.4685 210.506 69.2923 210.707C69.118 210.906 68.8926 211.062 68.6159 211.173C68.3412 211.283 68.0238 211.338 67.6639 211.338ZM70.4576 211.253V206.888H71.6683V211.253H70.4576ZM71.0658 206.325C70.8858 206.325 70.7313 206.265 70.6025 206.146C70.4756 206.025 70.4121 205.88 70.4121 205.711C70.4121 205.544 70.4756 205.401 70.6025 205.282C70.7313 205.161 70.8858 205.1 71.0658 205.1C71.2457 205.1 71.3992 205.161 71.5262 205.282C71.655 205.401 71.7194 205.544 71.7194 205.711C71.7194 205.88 71.655 206.025 71.5262 206.146C71.3992 206.265 71.2457 206.325 71.0658 206.325ZM74.6048 212.981C74.2126 212.981 73.8763 212.927 73.5959 212.819C73.3173 212.713 73.0957 212.568 72.9308 212.384C72.766 212.2 72.6589 211.994 72.6097 211.764L73.7294 211.614C73.7635 211.701 73.8175 211.782 73.8914 211.858C73.9653 211.934 74.0629 211.995 74.1842 212.04C74.3073 212.088 74.457 212.111 74.6332 212.111C74.8966 212.111 75.1135 212.047 75.284 211.918C75.4564 211.791 75.5426 211.578 75.5426 211.279V210.48H75.4915C75.4384 210.601 75.3589 210.716 75.2528 210.824C75.1467 210.932 75.0102 211.02 74.8435 211.088C74.6768 211.156 74.4778 211.19 74.2467 211.19C73.9189 211.19 73.6205 211.115 73.3514 210.963C73.0843 210.81 72.8711 210.576 72.712 210.261C72.5547 209.945 72.4761 209.545 72.4761 209.062C72.4761 208.567 72.5566 208.154 72.7177 207.823C72.8787 207.491 73.0928 207.243 73.36 207.078C73.629 206.913 73.9236 206.831 74.2438 206.831C74.4883 206.831 74.6929 206.872 74.8577 206.956C75.0226 207.037 75.1552 207.14 75.2556 207.263C75.3579 207.384 75.4365 207.503 75.4915 207.621H75.537V206.888H76.7391V211.296C76.7391 211.667 76.6482 211.978 76.4663 212.228C76.2844 212.478 76.0324 212.665 75.7103 212.79C75.3901 212.917 75.0216 212.981 74.6048 212.981ZM74.6304 210.281C74.8255 210.281 74.9903 210.233 75.1249 210.136C75.2613 210.037 75.3655 209.897 75.4375 209.715C75.5114 209.532 75.5483 209.312 75.5483 209.056C75.5483 208.8 75.5123 208.579 75.4403 208.391C75.3683 208.202 75.2641 208.055 75.1277 207.951C74.9913 207.846 74.8255 207.794 74.6304 207.794C74.4314 207.794 74.2637 207.848 74.1273 207.956C73.9909 208.062 73.8876 208.21 73.8175 208.4C73.7474 208.589 73.7124 208.808 73.7124 209.056C73.7124 209.308 73.7474 209.526 73.8175 209.71C73.8895 209.892 73.9928 210.033 74.1273 210.133C74.2637 210.232 74.4314 210.281 74.6304 210.281ZM78.9133 208.729V211.253H77.7026V205.432H78.8792V207.658H78.9303C79.0289 207.4 79.188 207.198 79.4078 207.052C79.6276 206.905 79.9032 206.831 80.2348 206.831C80.538 206.831 80.8023 206.897 81.0277 207.03C81.2551 207.16 81.4313 207.349 81.5564 207.595C81.6833 207.84 81.7458 208.132 81.7439 208.473V211.253H80.5332V208.689C80.5351 208.42 80.4669 208.211 80.3286 208.061C80.1922 207.912 80.0008 207.837 79.7545 207.837C79.5897 207.837 79.4438 207.872 79.3168 207.942C79.1918 208.012 79.0933 208.114 79.0213 208.249C78.9512 208.382 78.9152 208.542 78.9133 208.729ZM85.0186 206.888V207.797H82.3898V206.888H85.0186ZM82.9866 205.842H84.1973V209.911C84.1973 210.023 84.2144 210.11 84.2485 210.173C84.2826 210.234 84.3299 210.276 84.3906 210.301C84.4531 210.325 84.5251 210.338 84.6065 210.338C84.6634 210.338 84.7202 210.333 84.7771 210.324C84.8339 210.312 84.8775 210.304 84.9078 210.298L85.0982 211.199C85.0376 211.218 84.9523 211.24 84.8424 211.264C84.7325 211.291 84.599 211.307 84.4417 211.313C84.1499 211.324 83.8942 211.285 83.6744 211.196C83.4565 211.107 83.2869 210.969 83.1656 210.781C83.0444 210.594 82.9847 210.357 82.9866 210.071V205.842Z" fill="white" fill-opacity="0.5"/>
<mask id="mask1_152_492" style="mask-type:luminance" maskUnits="userSpaceOnUse" x="10" y="23" width="16" height="251">
<path d="M25.2359 23.3936H10.7734V273.953H25.2359V23.3936Z" fill="white"/>
</mask>
<g mask="url(#mask1_152_492)">
<path d="M12.7734 33.8598C12.7734 36.7498 15.1162 39.0926 18.0062 39.0926C20.8962 39.0926 23.2391 36.7498 23.2391 33.8598C23.2391 30.9698 20.8962 28.627 18.0062 28.627C15.1162 28.627 12.7734 30.9698 12.7734 33.8598Z" stroke="url(#paint0_linear_152_492)" stroke-width="0.615625"/>
<path d="M14.9258 33.8594C14.9258 35.5594 16.304 36.9375 18.004 36.9375C19.704 36.9375 21.0821 35.5594 21.0821 33.8594" stroke="url(#paint1_linear_152_492)" stroke-width="0.615625" stroke-linecap="round"/>
<path fill-rule="evenodd" clip-rule="evenodd" d="M16.1562 32.0121C16.1562 31.8408 16.2165 31.6953 16.3368 31.5758C16.4572 31.4563 16.6022 31.3965 16.7719 31.3965C16.9416 31.3965 17.0866 31.4563 17.207 31.5758C17.3274 31.6953 17.3876 31.8408 17.3876 32.0121C17.3876 32.1834 17.3274 32.3289 17.207 32.4484C17.0866 32.568 16.9416 32.6277 16.7719 32.6277C16.6022 32.6277 16.4572 32.568 16.3368 32.4484C16.2165 32.3289 16.1562 32.1834 16.1562 32.0121ZM18.6188 32.0121C18.6188 31.8408 18.679 31.6953 18.7993 31.5758C18.9197 31.4563 19.0647 31.3965 19.2344 31.3965C19.4041 31.3965 19.5491 31.4563 19.6695 31.5758C19.7899 31.6953 19.85 31.8408 19.85 32.0121C19.85 32.1834 19.7899 32.3289 19.6695 32.4484C19.5491 32.568 19.4041 32.6277 19.2344 32.6277C19.0647 32.6277 18.9197 32.568 18.7993 32.4484C18.679 32.3289 18.6188 32.1834 18.6188 32.0121Z" fill="url(#paint2_linear_152_492)"/>
<path d="M20.0016 59.0219H14.6289V55.58H15.4448V58.0486H16.9034V55.8161H17.7192V58.0486H20.0016V59.0219ZM18.3069 51.8038H15.9721V50.8541H20.0016V51.775H19.2854V51.8169C19.511 51.9079 19.6955 52.0574 19.839 52.2655C19.9824 52.4719 20.0541 52.7264 20.0541 53.0289C20.0541 53.293 19.9955 53.5265 19.8783 53.7294C19.7594 53.9305 19.5871 54.0879 19.3615 54.2016C19.1341 54.3153 18.8596 54.3721 18.5377 54.3721H15.9721V53.4224H18.3908C18.6462 53.4224 18.8491 53.3525 18.9995 53.2126C19.1499 53.0727 19.2251 52.889 19.2251 52.6617C19.2251 52.5217 19.191 52.3862 19.1228 52.255C19.0546 52.1239 18.9531 52.0163 18.8185 51.9324C18.682 51.8467 18.5115 51.8038 18.3069 51.8038ZM17.6405 48.3123H20.0016V49.262H15.9721V48.3543H16.6568V48.307C16.4312 48.2143 16.2519 48.0666 16.119 47.8637C15.9861 47.6591 15.9196 47.4063 15.9196 47.1055C15.9196 46.8274 15.9791 46.5852 16.098 46.3788C16.2169 46.1707 16.3892 46.0098 16.6148 45.8961C16.8404 45.7807 17.1141 45.7239 17.4359 45.7256H20.0016V46.6753H17.5828C17.3135 46.6753 17.1027 46.7452 16.9506 46.8851C16.7984 47.0233 16.7224 47.2148 16.7224 47.4597C16.7224 47.6258 16.7591 47.7736 16.8325 47.903C16.9042 48.0307 17.0083 48.1313 17.1447 48.2047C17.2811 48.2764 17.4464 48.3123 17.6405 48.3123Z" fill="white" fill-opacity="0.4"/>
<path d="M20.468 67.6357H15.543V205.844H20.468V67.6357Z" fill="white" fill-opacity="0.1"/>
<path d="M20.468 205.844H15.543V344.052H20.468V205.844Z" fill="white" fill-opacity="0.1"/>
</g>
<path fill-rule="evenodd" clip-rule="evenodd" d="M171.776 171.144C166.336 171.144 161.926 175.554 161.926 180.994C161.926 186.434 166.336 190.844 171.776 190.844C177.216 190.844 181.626 186.434 181.626 180.994C181.626 175.554 177.216 171.144 171.776 171.144ZM170.369 176.772C170.369 175.995 170.999 175.365 171.776 175.365C172.553 175.365 173.183 175.995 173.183 176.772V179.587H175.997C176.775 179.587 177.405 180.217 177.405 180.994C177.405 181.771 176.775 182.401 175.997 182.401H173.183V185.215C173.183 185.992 172.553 186.622 171.776 186.622C170.999 186.622 170.369 185.992 170.369 185.215V182.401H167.555C166.777 182.401 166.147 181.771 166.147 180.994C166.147 180.217 166.777 179.587 167.555 179.587H170.369V176.772Z" fill="white" fill-opacity="0.6"/>
<path d="M103.929 175.398V186.144H101.337V177.822H101.274L98.8711 179.291V177.046L101.521 175.398H103.929ZM106.326 175.398H109.542L112.27 182.051H112.396L115.124 175.398H118.341V186.144H115.812V179.543H115.723L113.141 186.075H111.525L108.944 179.506H108.855V186.144H106.326V175.398Z" fill="white"/>
<path fill-rule="evenodd" clip-rule="evenodd" d="M45.557 171.144C40.117 171.144 35.707 175.554 35.707 180.994C35.707 186.434 40.117 190.844 45.557 190.844C50.997 190.844 55.407 186.434 55.407 180.994C55.407 175.554 50.997 171.144 45.557 171.144ZM51.1854 180.993C51.1854 180.216 50.5554 179.586 49.7783 179.586H41.3354C40.5583 179.586 39.9283 180.216 39.9283 180.993C39.9283 181.77 40.5583 182.4 41.3354 182.4H49.7783C50.5554 182.4 51.1854 181.77 51.1854 180.993Z" fill="white" fill-opacity="0.6"/>
<mask id="mask2_152_492" style="mask-type:luminance" maskUnits="userSpaceOnUse" x="35" y="46" width="34" height="13">
<path d="M62.7946 46.1719H41.8633C38.4633 46.1719 35.707 48.9281 35.707 52.3281C35.707 55.7281 38.4633 58.4844 41.8633 58.4844H62.7946C66.1946 58.4844 68.9508 55.7281 68.9508 52.3281C68.9508 48.9281 66.1946 46.1719 62.7946 46.1719Z" fill="white"/>
</mask>
<g mask="url(#mask2_152_492)">
<path d="M62.7946 46.1719H41.8633C38.4633 46.1719 35.707 48.9281 35.707 52.3281C35.707 55.7281 38.4633 58.4844 41.8633 58.4844H62.7946C66.1946 58.4844 68.9508 55.7281 68.9508 52.3281C68.9508 48.9281 66.1946 46.1719 62.7946 46.1719Z" fill="white" fill-opacity="0.2"/>
<path d="M62.7946 46.1719H54.4883C51.0883 46.1719 48.332 48.9281 48.332 52.3281C48.332 55.7281 51.0883 58.4844 54.4883 58.4844H62.7946C66.1946 58.4844 68.9508 55.7281 68.9508 52.3281C68.9508 48.9281 66.1946 46.1719 62.7946 46.1719Z" fill="url(#paint3_linear_152_492)"/>
<path d="M58.1906 52.045C58.1906 52.6431 58.0743 53.1477 57.8417 53.5587C57.6091 53.9679 57.2952 54.2784 56.8999 54.49C56.5047 54.6999 56.0639 54.8048 55.5777 54.8048C55.088 54.8048 54.6456 54.699 54.2503 54.4874C53.8568 54.274 53.5437 53.9627 53.3111 53.5534C53.0803 53.1424 52.9648 52.6396 52.9648 52.045C52.9648 51.4468 53.0803 50.9432 53.3111 50.5339C53.5437 50.1229 53.8568 49.8125 54.2503 49.6026C54.6456 49.391 55.088 49.2852 55.5777 49.2852C56.0639 49.2852 56.5047 49.391 56.8999 49.6026C57.2952 49.8125 57.6091 50.1229 57.8417 50.5339C58.0743 50.9432 58.1906 51.4468 58.1906 52.045ZM56.6901 52.045C56.6901 51.7232 56.6472 51.4521 56.5615 51.2317C56.4776 51.0096 56.3525 50.8417 56.1864 50.728C56.022 50.6126 55.8191 50.5549 55.5777 50.5549C55.3364 50.5549 55.1326 50.6126 54.9665 50.728C54.8021 50.8417 54.677 51.0096 54.5913 51.2317C54.5074 51.4521 54.4654 51.7232 54.4654 52.045C54.4654 52.3668 54.5074 52.6387 54.5913 52.8609C54.677 53.0812 54.8021 53.2491 54.9665 53.3646C55.1326 53.4782 55.3364 53.5351 55.5777 53.5351C55.8191 53.5351 56.022 53.4782 56.1864 53.3646C56.3525 53.2491 56.4776 53.0812 56.5615 52.8609C56.6472 52.6387 56.6901 52.3668 56.6901 52.045ZM63.822 49.3586V54.7313H62.6047L60.6634 51.9086H60.6319V54.7313H59.1733V49.3586H60.4116L62.3214 52.1709H62.3634V49.3586H63.822Z" fill="#11171D"/>
</g>
<mask id="mask3_152_492" style="mask-type:luminance" maskUnits="userSpaceOnUse" x="35" y="88" width="34" height="13">
<path d="M35.707 94.1904C35.707 90.7904 38.4633 88.0342 41.8633 88.0342H62.7945C66.1945 88.0342 68.9508 90.7904 68.9508 94.1904C68.9508 97.5904 66.1945 100.347 62.7945 100.347H41.8633C38.4633 100.347 35.707 97.5904 35.707 94.1904Z" fill="white"/>
</mask>
<g mask="url(#mask3_152_492)">
<path d="M35.707 94.1904C35.707 90.7904 38.4633 88.0342 41.8633 88.0342H62.7945C66.1945 88.0342 68.9508 90.7904 68.9508 94.1904C68.9508 97.5904 66.1945 100.347 62.7945 100.347H41.8633C38.4633 100.347 35.707 97.5904 35.707 94.1904Z" fill="white" fill-opacity="0.2"/>
<path d="M54.7852 88.0342H41.8633C38.4633 88.0342 35.707 90.7904 35.707 94.1904C35.707 97.5904 38.4633 100.347 41.8633 100.347H54.7852C58.1852 100.347 60.9414 97.5904 60.9414 94.1904C60.9414 90.7904 58.1852 88.0342 54.7852 88.0342Z" fill="white" fill-opacity="0.5"/>
</g>
<path d="M45.5656 94.504C45.5656 95.1021 45.4493 95.6067 45.2167 96.0177C44.9841 96.4269 44.6702 96.7374 44.2749 96.949C43.8797 97.1588 43.4389 97.2638 42.9527 97.2638C42.463 97.2638 42.0206 97.158 41.6253 96.9464C41.2318 96.733 40.9187 96.4217 40.6861 96.0124C40.4553 95.6014 40.3398 95.0986 40.3398 94.504C40.3398 93.9058 40.4553 93.4021 40.6861 92.9929C40.9187 92.5819 41.2318 92.2715 41.6253 92.0616C42.0206 91.85 42.463 91.7441 42.9527 91.7441C43.4389 91.7441 43.8797 91.85 44.2749 92.0616C44.6702 92.2715 44.9841 92.5819 45.2167 92.9929C45.4493 93.4021 45.5656 93.9058 45.5656 94.504ZM44.0651 94.504C44.0651 94.1822 44.0222 93.9111 43.9365 93.6907C43.8526 93.4686 43.7275 93.3007 43.5614 93.187C43.397 93.0716 43.1941 93.0139 42.9527 93.0139C42.7114 93.0139 42.5076 93.0716 42.3415 93.187C42.1771 93.3007 42.052 93.4686 41.9663 93.6907C41.8824 93.9111 41.8404 94.1822 41.8404 94.504C41.8404 94.8258 41.8824 95.0977 41.9663 95.3198C42.052 95.5402 42.1771 95.7081 42.3415 95.8235C42.5076 95.9372 42.7114 95.9941 42.9527 95.9941C43.1941 95.9941 43.397 95.9372 43.5614 95.8235C43.7275 95.7081 43.8526 95.5402 43.9365 95.3198C44.0222 95.0977 44.0651 94.8258 44.0651 94.504ZM46.5483 97.1903V91.8176H50.326V92.9929H48.0069V93.9163H50.0952V95.0916H48.0069V97.1903H46.5483ZM51.1703 97.1903V91.8176H54.948V92.9929H52.6289V93.9163H54.7172V95.0916H52.6289V97.1903H51.1703Z" fill="#11171D"/>
<mask id="mask4_152_492" style="mask-type:luminance" maskUnits="userSpaceOnUse" x="35" y="129" width="34" height="14">
<path d="M35.707 136.053C35.707 132.653 38.4633 129.896 41.8633 129.896H62.7945C66.1945 129.896 68.9508 132.653 68.9508 136.053C68.9508 139.453 66.1945 142.209 62.7945 142.209H41.8633C38.4633 142.209 35.707 139.453 35.707 136.053Z" fill="white"/>
</mask>
<g mask="url(#mask4_152_492)">
<path d="M35.707 136.053C35.707 132.653 38.4633 129.896 41.8633 129.896H62.7945C66.1945 129.896 68.9508 132.653 68.9508 136.053C68.9508 139.453 66.1945 142.209 62.7945 142.209H41.8633C38.4633 142.209 35.707 139.453 35.707 136.053Z" fill="white" fill-opacity="0.2"/>
<path d="M54.7852 129.896H41.8633C38.4633 129.896 35.707 132.653 35.707 136.053C35.707 139.453 38.4633 142.209 41.8633 142.209H54.7852C58.1852 142.209 60.9414 139.453 60.9414 136.053C60.9414 132.653 58.1852 129.896 54.7852 129.896Z" fill="white" fill-opacity="0.5"/>
</g>
<path d="M45.5656 136.366C45.5656 136.965 45.4493 137.469 45.2167 137.88C44.9841 138.289 44.6702 138.6 44.2749 138.811C43.8797 139.021 43.4389 139.126 42.9527 139.126C42.463 139.126 42.0206 139.02 41.6253 138.809C41.2318 138.595 40.9187 138.284 40.6861 137.875C40.4553 137.464 40.3398 136.961 40.3398 136.366C40.3398 135.768 40.4553 135.265 40.6861 134.855C40.9187 134.444 41.2318 134.134 41.6253 133.924C42.0206 133.712 42.463 133.607 42.9527 133.607C43.4389 133.607 43.8797 133.712 44.2749 133.924C44.6702 134.134 44.9841 134.444 45.2167 134.855C45.4493 135.265 45.5656 135.768 45.5656 136.366ZM44.0651 136.366C44.0651 136.045 44.0222 135.773 43.9365 135.553C43.8526 135.331 43.7275 135.163 43.5614 135.049C43.397 134.934 43.1941 134.876 42.9527 134.876C42.7114 134.876 42.5076 134.934 42.3415 135.049C42.1771 135.163 42.052 135.331 41.9663 135.553C41.8824 135.773 41.8404 136.045 41.8404 136.366C41.8404 136.688 41.8824 136.96 41.9663 137.182C42.052 137.403 42.1771 137.571 42.3415 137.686C42.5076 137.8 42.7114 137.856 42.9527 137.856C43.1941 137.856 43.397 137.8 43.5614 137.686C43.7275 137.571 43.8526 137.403 43.9365 137.182C44.0222 136.96 44.0651 136.688 44.0651 136.366ZM46.5483 139.053V133.68H50.326V134.855H48.0069V135.779H50.0952V136.954H48.0069V139.053H46.5483ZM51.1703 139.053V133.68H54.948V134.855H52.6289V135.779H54.7172V136.954H52.6289V139.053H51.1703Z" fill="#11171D"/>
<mask id="mask5_152_492" style="mask-type:luminance" maskUnits="userSpaceOnUse" x="35" y="257" width="34" height="14">
<path d="M35.707 264.103C35.707 260.703 38.4633 257.946 41.8633 257.946H62.7945C66.1945 257.946 68.9508 260.703 68.9508 264.103C68.9508 267.503 66.1945 270.259 62.7945 270.259H41.8633C38.4633 270.259 35.707 267.503 35.707 264.103Z" fill="white"/>
</mask>
<g mask="url(#mask5_152_492)">
<path d="M35.707 264.103C35.707 260.703 38.4633 257.946 41.8633 257.946H62.7945C66.1945 257.946 68.9508 260.703 68.9508 264.103C68.9508 267.503 66.1945 270.259 62.7945 270.259H41.8633C38.4633 270.259 35.707 267.503 35.707 264.103Z" fill="white" fill-opacity="0.2"/>
<path d="M54.7852 257.946H41.8633C38.4633 257.946 35.707 260.703 35.707 264.103C35.707 267.503 38.4633 270.259 41.8633 270.259H54.7852C58.1852 270.259 60.9414 267.503 60.9414 264.103C60.9414 260.703 58.1852 257.946 54.7852 257.946Z" fill="white" fill-opacity="0.5"/>
</g>
<path d="M45.5656 264.416C45.5656 265.014 45.4493 265.519 45.2167 265.93C44.9841 266.339 44.6702 266.65 44.2749 266.861C43.8797 267.071 43.4389 267.176 42.9527 267.176C42.463 267.176 42.0206 267.07 41.6253 266.859C41.2318 266.645 40.9187 266.334 40.6861 265.925C40.4553 265.514 40.3398 265.011 40.3398 264.416C40.3398 263.818 40.4553 263.314 40.6861 262.905C40.9187 262.494 41.2318 262.184 41.6253 261.974C42.0206 261.762 42.463 261.656 42.9527 261.656C43.4389 261.656 43.8797 261.762 44.2749 261.974C44.6702 262.184 44.9841 262.494 45.2167 262.905C45.4493 263.314 45.5656 263.818 45.5656 264.416ZM44.0651 264.416C44.0651 264.094 44.0222 263.823 43.9365 263.603C43.8526 263.381 43.7275 263.213 43.5614 263.099C43.397 262.984 43.1941 262.926 42.9527 262.926C42.7114 262.926 42.5076 262.984 42.3415 263.099C42.1771 263.213 42.052 263.381 41.9663 263.603C41.8824 263.823 41.8404 264.094 41.8404 264.416C41.8404 264.738 41.8824 265.01 41.9663 265.232C42.052 265.452 42.1771 265.62 42.3415 265.736C42.5076 265.849 42.7114 265.906 42.9527 265.906C43.1941 265.906 43.397 265.849 43.5614 265.736C43.7275 265.62 43.8526 265.452 43.9365 265.232C44.0222 265.01 44.0651 264.738 44.0651 264.416ZM46.5483 267.103V261.73H50.326V262.905H48.0069V263.829H50.0952V265.004H48.0069V267.103H46.5483ZM51.1703 267.103V261.73H54.948V262.905H52.6289V263.829H54.7172V265.004H52.6289V267.103H51.1703Z" fill="#11171D"/>
<path d="M163.142 221.625H38.1695C36.8095 221.625 35.707 222.727 35.707 224.087C35.707 225.447 36.8095 226.55 38.1695 226.55H163.142C164.502 226.55 165.604 225.447 165.604 224.087C165.604 222.727 164.502 221.625 163.142 221.625Z" fill="white" fill-opacity="0.2"/>
<path d="M105.929 221.625H38.1695C36.8095 221.625 35.707 222.727 35.707 224.087C35.707 225.447 36.8095 226.55 38.1695 226.55H105.929C107.289 226.55 108.392 225.447 108.392 224.087C108.392 222.727 107.289 221.625 105.929 221.625Z" fill="url(#paint4_linear_152_492)"/>
<path fill-rule="evenodd" clip-rule="evenodd" d="M105.006 229.32C107.896 229.32 110.239 226.977 110.239 224.087C110.239 221.197 107.896 218.854 105.006 218.854C102.116 218.854 99.7734 221.197 99.7734 224.087C99.7734 226.977 102.116 229.32 105.006 229.32Z" fill="white"/>
<path d="M174.155 226.229C173.777 226.229 173.441 226.163 173.148 226.03C172.856 225.895 172.626 225.71 172.458 225.474C172.291 225.239 172.206 224.968 172.203 224.662H173.501C173.506 224.831 173.572 224.967 173.698 225.068C173.827 225.169 173.979 225.219 174.155 225.219C174.292 225.219 174.412 225.191 174.516 225.133C174.62 225.074 174.702 224.99 174.761 224.883C174.821 224.775 174.85 224.65 174.848 224.508C174.85 224.363 174.821 224.238 174.761 224.132C174.702 224.025 174.62 223.942 174.516 223.885C174.412 223.825 174.292 223.796 174.155 223.796C174.014 223.796 173.884 223.83 173.763 223.899C173.645 223.967 173.557 224.06 173.501 224.181L172.328 223.95L172.52 221.237H175.829V222.305H173.617L173.521 223.392H173.549C173.626 223.243 173.759 223.119 173.949 223.021C174.138 222.922 174.357 222.872 174.607 222.872C174.901 222.872 175.162 222.94 175.391 223.077C175.622 223.213 175.804 223.401 175.937 223.642C176.072 223.881 176.139 224.157 176.137 224.469C176.139 224.812 176.057 225.117 175.892 225.383C175.728 225.647 175.498 225.855 175.201 226.006C174.905 226.155 174.556 226.229 174.155 226.229ZM179.388 226.229C179.101 226.229 178.828 226.185 178.57 226.095C178.313 226.003 178.086 225.86 177.887 225.664C177.688 225.469 177.532 225.214 177.418 224.9C177.306 224.585 177.251 224.205 177.252 223.757C177.254 223.358 177.305 222.999 177.406 222.68C177.509 222.361 177.654 222.089 177.841 221.865C178.031 221.64 178.257 221.469 178.519 221.35C178.782 221.23 179.075 221.17 179.397 221.17C179.76 221.17 180.079 221.24 180.354 221.379C180.63 221.518 180.85 221.705 181.013 221.939C181.178 222.172 181.275 222.428 181.302 222.709H179.984C179.954 222.569 179.883 222.468 179.772 222.403C179.663 222.338 179.538 222.305 179.397 222.305C179.117 222.305 178.911 222.427 178.779 222.67C178.649 222.914 178.583 223.235 178.58 223.632H178.608C178.671 223.482 178.766 223.353 178.892 223.245C179.019 223.138 179.166 223.055 179.335 222.997C179.503 222.94 179.681 222.911 179.869 222.911C180.167 222.911 180.427 222.978 180.65 223.113C180.875 223.248 181.049 223.432 181.174 223.666C181.299 223.9 181.361 224.168 181.36 224.469C181.361 224.822 181.278 225.13 181.109 225.395C180.943 225.66 180.711 225.865 180.414 226.011C180.118 226.156 179.776 226.229 179.388 226.229ZM179.378 225.219C179.511 225.219 179.629 225.189 179.731 225.128C179.836 225.067 179.917 224.984 179.974 224.878C180.034 224.772 180.063 224.652 180.061 224.517C180.063 224.381 180.034 224.261 179.974 224.157C179.917 224.051 179.836 223.967 179.731 223.906C179.629 223.845 179.511 223.815 179.378 223.815C179.28 223.815 179.19 223.833 179.106 223.868C179.024 223.902 178.953 223.951 178.892 224.015C178.831 224.077 178.783 224.152 178.748 224.238C178.714 224.323 178.697 224.416 178.695 224.517C178.697 224.652 178.727 224.772 178.786 224.878C178.846 224.984 178.927 225.067 179.029 225.128C179.132 225.189 179.248 225.219 179.378 225.219Z" fill="white" fill-opacity="0.8"/>
<path d="M39.3452 73.8218H40.5758V77.6017C40.5758 78.0261 40.4744 78.3975 40.2717 78.7158C40.0708 79.0341 39.7895 79.2823 39.4276 79.4604C39.0657 79.6366 38.6441 79.7247 38.1629 79.7247C37.6798 79.7247 37.2572 79.6366 36.8954 79.4604C36.5335 79.2823 36.2521 79.0341 36.0513 78.7158C35.8504 78.3975 35.75 78.0261 35.75 77.6017V73.8218H36.9806V77.4966C36.9806 77.7182 37.0289 77.9153 37.1256 78.0877C37.2241 78.2601 37.3624 78.3956 37.5405 78.4941C37.7186 78.5926 37.9261 78.6419 38.1629 78.6419C38.4016 78.6419 38.6091 78.5926 38.7853 78.4941C38.9634 78.3956 39.1008 78.2601 39.1974 78.0877C39.2959 77.9153 39.3452 77.7182 39.3452 77.4966V73.8218ZM42.7762 77.1186V79.6423H41.5655V75.2769H42.7194V76.0471H42.7705C42.8671 75.7932 43.0291 75.5924 43.2565 75.4446C43.4839 75.2949 43.7595 75.2201 44.0835 75.2201C44.3867 75.2201 44.651 75.2864 44.8765 75.419C45.1019 75.5517 45.2772 75.7411 45.4022 75.9874C45.5273 76.2319 45.5898 76.5236 45.5898 76.8628V79.6423H44.3791V77.0788C44.381 76.8116 44.3128 76.6032 44.1745 76.4535C44.0362 76.302 43.8457 76.2262 43.6032 76.2262C43.4403 76.2262 43.2963 76.2612 43.1712 76.3313C43.0481 76.4014 42.9515 76.5037 42.8814 76.6383C42.8131 76.7709 42.7781 76.931 42.7762 77.1186ZM47.7547 73.8218V79.6423H46.544V73.8218H47.7547ZM48.7245 79.6423V75.2769H49.9352V79.6423H48.7245ZM49.3327 74.7142C49.1527 74.7142 48.9983 74.6545 48.8695 74.5352C48.7425 74.4139 48.6791 74.269 48.6791 74.1003C48.6791 73.9336 48.7425 73.7906 48.8695 73.6712C48.9983 73.5499 49.1527 73.4893 49.3327 73.4893C49.5127 73.4893 49.6662 73.5499 49.7931 73.6712C49.922 73.7906 49.9864 73.9336 49.9864 74.1003C49.9864 74.269 49.922 74.4139 49.7931 74.5352C49.6662 74.6545 49.5127 74.7142 49.3327 74.7142ZM50.9051 79.6423V75.2769H52.0589V76.0471H52.1101C52.201 75.7913 52.3526 75.5896 52.5648 75.4418C52.777 75.294 53.0309 75.2201 53.3265 75.2201C53.6258 75.2201 53.8807 75.2949 54.091 75.4446C54.3013 75.5924 54.4415 75.7932 54.5116 76.0471H54.5571C54.6461 75.797 54.8072 75.5971 55.0402 75.4475C55.2752 75.2959 55.5527 75.2201 55.8729 75.2201C56.2803 75.2201 56.6109 75.3499 56.8648 75.6095C57.1206 75.8671 57.2485 76.2328 57.2485 76.7065V79.6423H56.0406V76.9452C56.0406 76.7027 55.9762 76.5208 55.8474 76.3995C55.7185 76.2783 55.5575 76.2176 55.3642 76.2176C55.1444 76.2176 54.973 76.2877 54.8498 76.428C54.7267 76.5663 54.6651 76.7491 54.6651 76.9765V79.6423H53.4913V76.9196C53.4913 76.7055 53.4297 76.535 53.3066 76.4081C53.1853 76.2811 53.0252 76.2176 52.8263 76.2176C52.6918 76.2176 52.5705 76.2517 52.4625 76.32C52.3564 76.3863 52.2721 76.4801 52.2096 76.6013C52.147 76.7207 52.1158 76.8609 52.1158 77.0219V79.6423H50.9051ZM58.2048 79.6423V75.2769H59.4155V79.6423H58.2048ZM58.813 74.7142C58.633 74.7142 58.4786 74.6545 58.3498 74.5352C58.2228 74.4139 58.1593 74.269 58.1593 74.1003C58.1593 73.9336 58.2228 73.7906 58.3498 73.6712C58.4786 73.5499 58.633 73.4893 58.813 73.4893C58.993 73.4893 59.1465 73.5499 59.2734 73.6712C59.4022 73.7906 59.4667 73.9336 59.4667 74.1003C59.4667 74.269 59.4022 74.4139 59.2734 74.5352C59.1465 74.6545 58.993 74.7142 58.813 74.7142ZM62.7073 75.2769V76.1864H60.0784V75.2769H62.7073ZM60.6752 74.2311H61.8859V78.3008C61.8859 78.4126 61.903 78.4998 61.9371 78.5623C61.9712 78.6229 62.0186 78.6656 62.0792 78.6902C62.1417 78.7148 62.2137 78.7271 62.2952 78.7271C62.352 78.7271 62.4089 78.7224 62.4657 78.7129C62.5225 78.7016 62.5661 78.693 62.5964 78.6874L62.7869 79.5883C62.7262 79.6072 62.641 79.629 62.5311 79.6536C62.4212 79.6802 62.2876 79.6963 62.1303 79.702C61.8386 79.7133 61.5828 79.6745 61.363 79.5854C61.1451 79.4964 60.9755 79.3581 60.8543 79.1705C60.733 78.9829 60.6733 78.7461 60.6752 78.46V74.2311ZM65.4385 79.7275C64.9894 79.7275 64.6029 79.6366 64.2789 79.4547C63.9568 79.2709 63.7086 79.0113 63.5343 78.676C63.36 78.3387 63.2728 77.9399 63.2728 77.4795C63.2728 77.0305 63.36 76.6364 63.5343 76.2972C63.7086 75.9581 63.954 75.6938 64.2704 75.5043C64.5887 75.3148 64.9619 75.2201 65.3901 75.2201C65.6781 75.2201 65.9462 75.2665 66.1944 75.3594C66.4445 75.4503 66.6624 75.5877 66.8481 75.7714C67.0357 75.9552 67.1816 76.1864 67.2858 76.4649C67.39 76.7415 67.4421 77.0655 67.4421 77.4369V77.7694H63.756V77.0191H66.3024C66.3024 76.8448 66.2645 76.6904 66.1888 76.5558C66.113 76.4213 66.0078 76.3162 65.8733 76.2404C65.7407 76.1627 65.5862 76.1239 65.41 76.1239C65.2263 76.1239 65.0633 76.1665 64.9212 76.2517C64.781 76.3351 64.6711 76.4478 64.5915 76.5899C64.512 76.7302 64.4712 76.8865 64.4693 77.0589V77.7722C64.4693 77.9882 64.5091 78.1748 64.5887 78.3321C64.6702 78.4894 64.7848 78.6106 64.9326 78.6959C65.0804 78.7811 65.2556 78.8238 65.4584 78.8238C65.5929 78.8238 65.716 78.8048 65.8278 78.7669C65.9396 78.729 66.0353 78.6722 66.1149 78.5964C66.1944 78.5206 66.2551 78.4278 66.2967 78.3179L67.4165 78.3918C67.3597 78.6608 67.2431 78.8958 67.0669 79.0966C66.8926 79.2956 66.6672 79.4509 66.3905 79.5627C66.1158 79.6726 65.7984 79.7275 65.4385 79.7275ZM69.8407 79.7133C69.5092 79.7133 69.2089 79.6281 68.9398 79.4575C68.6727 79.2851 68.4605 79.0322 68.3032 78.6987C68.1478 78.3634 68.0702 77.9522 68.0702 77.4653C68.0702 76.9651 68.1507 76.5492 68.3117 76.2176C68.4728 75.8842 68.6869 75.635 68.954 75.4702C69.2231 75.3035 69.5177 75.2201 69.8379 75.2201C70.0823 75.2201 70.286 75.2618 70.4489 75.3451C70.6138 75.4266 70.7464 75.5289 70.8468 75.6521C70.9491 75.7733 71.0268 75.8927 71.0799 76.0102H71.1168V73.8218H72.3247V79.6423H71.131V78.9431H71.0799C71.023 79.0644 70.9425 79.1847 70.8383 79.3041C70.736 79.4215 70.6024 79.5191 70.4376 79.5968C70.2746 79.6745 70.0757 79.7133 69.8407 79.7133ZM70.2244 78.7499C70.4196 78.7499 70.5844 78.6968 70.7189 78.5907C70.8553 78.4827 70.9596 78.3321 71.0316 78.1389C71.1054 77.9456 71.1424 77.7192 71.1424 77.4596C71.1424 77.2 71.1064 76.9746 71.0344 76.7832C70.9624 76.5918 70.8582 76.4441 70.7218 76.3399C70.5854 76.2356 70.4196 76.1835 70.2244 76.1835C70.0255 76.1835 69.8578 76.2375 69.7214 76.3455C69.585 76.4535 69.4817 76.6032 69.4116 76.7946C69.3415 76.9859 69.3064 77.2076 69.3064 77.4596C69.3064 77.7135 69.3415 77.938 69.4116 78.1332C69.4836 78.3264 69.5869 78.478 69.7214 78.5879C69.8578 78.6959 70.0255 78.7499 70.2244 78.7499ZM76.1983 79.6423H74.8796L76.889 73.8218H78.4748L80.4813 79.6423H79.1626L77.7046 75.1519H77.6591L76.1983 79.6423ZM76.1159 77.3545H79.2308V78.3151H76.1159V77.3545ZM81.1591 79.6423V75.2769H82.3129V76.0471H82.3641C82.455 75.7913 82.6066 75.5896 82.8188 75.4418C83.031 75.294 83.2849 75.2201 83.5805 75.2201C83.8798 75.2201 84.1347 75.2949 84.345 75.4446C84.5553 75.5924 84.6955 75.7932 84.7656 76.0471H84.8111C84.9001 75.797 85.0612 75.5971 85.2942 75.4475C85.5292 75.2959 85.8067 75.2201 86.1269 75.2201C86.5343 75.2201 86.8649 75.3499 87.1188 75.6095C87.3746 75.8671 87.5025 76.2328 87.5025 76.7065V79.6423H86.2946V76.9452C86.2946 76.7027 86.2302 76.5208 86.1014 76.3995C85.9725 76.2783 85.8115 76.2176 85.6182 76.2176C85.3984 76.2176 85.227 76.2877 85.1038 76.428C84.9807 76.5663 84.9191 76.7491 84.9191 76.9765V79.6423H83.7453V76.9196C83.7453 76.7055 83.6837 76.535 83.5606 76.4081C83.4393 76.2811 83.2792 76.2176 83.0803 76.2176C82.9458 76.2176 82.8245 76.2517 82.7165 76.32C82.6104 76.3863 82.5261 76.4801 82.4636 76.6013C82.4011 76.7207 82.3698 76.8609 82.3698 77.0219V79.6423H81.1591ZM88.4588 79.6423V75.2769H89.6127V76.0471H89.6638C89.7548 75.7913 89.9063 75.5896 90.1186 75.4418C90.3308 75.294 90.5846 75.2201 90.8802 75.2201C91.1796 75.2201 91.4344 75.2949 91.6447 75.4446C91.855 75.5924 91.9952 75.7932 92.0653 76.0471H92.1108C92.1999 75.797 92.3609 75.5971 92.594 75.4475C92.8289 75.2959 93.1065 75.2201 93.4267 75.2201C93.834 75.2201 94.1646 75.3499 94.4185 75.6095C94.6743 75.8671 94.8022 76.2328 94.8022 76.7065V79.6423H93.5943V76.9452C93.5943 76.7027 93.5299 76.5208 93.4011 76.3995C93.2722 76.2783 93.1112 76.2176 92.9179 76.2176C92.6982 76.2176 92.5267 76.2877 92.4035 76.428C92.2804 76.5663 92.2188 76.7491 92.2188 76.9765V79.6423H91.0451V76.9196C91.0451 76.7055 90.9835 76.535 90.8603 76.4081C90.7391 76.2811 90.579 76.2176 90.38 76.2176C90.2455 76.2176 90.1242 76.2517 90.0162 76.32C89.9101 76.3863 89.8258 76.4801 89.7633 76.6013C89.7008 76.7207 89.6695 76.8609 89.6695 77.0219V79.6423H88.4588ZM97.7309 79.7275C97.2894 79.7275 96.9077 79.6338 96.5856 79.4462C96.2654 79.2567 96.0181 78.9934 95.8438 78.6561C95.6695 78.3169 95.5823 77.9238 95.5823 77.4767C95.5823 77.0257 95.6695 76.6316 95.8438 76.2944C96.0181 75.9552 96.2654 75.6919 96.5856 75.5043C96.9077 75.3148 97.2894 75.2201 97.7309 75.2201C98.1724 75.2201 98.5532 75.3148 98.8734 75.5043C99.1955 75.6919 99.4437 75.9552 99.618 76.2944C99.7923 76.6316 99.8795 77.0257 99.8795 77.4767C99.8795 77.9238 99.7923 78.3169 99.618 78.6561C99.4437 78.9934 99.1955 79.2567 98.8734 79.4462C98.5532 79.6338 98.1724 79.7275 97.7309 79.7275ZM97.7366 78.7897C97.9374 78.7897 98.1051 78.7328 98.2396 78.6192C98.3741 78.5036 98.4755 78.3463 98.5437 78.1474C98.6138 77.9484 98.6489 77.722 98.6489 77.4681C98.6489 77.2142 98.6138 76.9878 98.5437 76.7889C98.4755 76.5899 98.3741 76.4327 98.2396 76.3171C98.1051 76.2015 97.9374 76.1438 97.7366 76.1438C97.5339 76.1438 97.3633 76.2015 97.225 76.3171C97.0886 76.4327 96.9853 76.5899 96.9152 76.7889C96.847 76.9878 96.8129 77.2142 96.8129 77.4681C96.8129 77.722 96.847 77.9484 96.9152 78.1474C96.9853 78.3463 97.0886 78.5036 97.225 78.6192C97.3633 78.7328 97.5339 78.7897 97.7366 78.7897Z" fill="white" fill-opacity="0.5"/>
<path fill-rule="evenodd" clip-rule="evenodd" d="M111.063 74.4234C110.943 74.543 110.883 74.6884 110.883 74.8598C110.883 75.0311 110.943 75.1765 111.063 75.2961C111.184 75.4156 111.329 75.4754 111.498 75.4754C111.668 75.4754 111.813 75.4156 111.934 75.2961C112.054 75.1765 112.114 75.0311 112.114 74.8598C112.114 74.6884 112.054 74.543 111.934 74.4234C111.813 74.3039 111.668 74.2441 111.498 74.2441C111.329 74.2441 111.184 74.3039 111.063 74.4234ZM111.96 78.301H112.884V78.9166H110.113V78.301H111.037V76.4541H110.131V75.8385H111.037H111.35H111.96V78.301Z" fill="white" fill-opacity="0.5"/>
<path d="M41.0994 246.645C41.0994 247.28 40.9791 247.82 40.7385 248.265C40.4997 248.711 40.1738 249.051 39.7608 249.286C39.3497 249.519 38.8874 249.635 38.3739 249.635C37.8567 249.635 37.3925 249.518 36.9813 249.283C36.5702 249.048 36.2452 248.708 36.0065 248.263C35.7678 247.817 35.6484 247.278 35.6484 246.645C35.6484 246.011 35.7678 245.471 36.0065 245.025C36.2452 244.58 36.5702 244.241 36.9813 244.008C37.3925 243.773 37.8567 243.656 38.3739 243.656C38.8874 243.656 39.3497 243.773 39.7608 244.008C40.1738 244.241 40.4997 244.58 40.7385 245.025C40.9791 245.471 41.0994 246.011 41.0994 246.645ZM39.8518 246.645C39.8518 246.234 39.7902 245.888 39.667 245.605C39.5458 245.323 39.3743 245.109 39.1526 244.963C38.9309 244.817 38.6714 244.744 38.3739 244.744C38.0764 244.744 37.8169 244.817 37.5952 244.963C37.3735 245.109 37.2011 245.323 37.0779 245.605C36.9567 245.888 36.8961 246.234 36.8961 246.645C36.8961 247.057 36.9567 247.403 37.0779 247.686C37.2011 247.968 37.3735 248.182 37.5952 248.328C37.8169 248.474 38.0764 248.547 38.3739 248.547C38.6714 248.547 38.9309 248.474 39.1526 248.328C39.3743 248.182 39.5458 247.968 39.667 247.686C39.7902 247.403 39.8518 247.057 39.8518 246.645ZM43.1989 247.032V249.556H41.9882V245.19H43.1421V245.961H43.1933C43.2899 245.707 43.4519 245.506 43.6792 245.358C43.9066 245.208 44.1823 245.133 44.5063 245.133C44.8094 245.133 45.0737 245.2 45.2992 245.332C45.5247 245.465 45.6999 245.655 45.825 245.901C45.95 246.145 46.0125 246.437 46.0125 246.776V249.556H44.8018V246.992C44.8037 246.725 44.7355 246.517 44.5972 246.367C44.4589 246.215 44.2685 246.14 44.026 246.14C43.863 246.14 43.719 246.175 43.594 246.245C43.4708 246.315 43.3742 246.417 43.3041 246.552C43.2359 246.684 43.2008 246.844 43.1989 247.032ZM48.9562 249.641C48.5071 249.641 48.1206 249.55 47.7966 249.368C47.4745 249.184 47.2263 248.925 47.052 248.589C46.8777 248.252 46.7905 247.853 46.7905 247.393C46.7905 246.944 46.8777 246.55 47.052 246.211C47.2263 245.871 47.4717 245.607 47.7881 245.418C48.1064 245.228 48.4796 245.133 48.9078 245.133C49.1958 245.133 49.4639 245.18 49.7121 245.273C49.9622 245.364 50.1801 245.501 50.3658 245.685C50.5534 245.869 50.6993 246.1 50.8035 246.378C50.9077 246.655 50.9598 246.979 50.9598 247.35V247.683H47.2737V246.932H49.8201C49.8201 246.758 49.7822 246.604 49.7065 246.469C49.6307 246.335 49.5255 246.23 49.391 246.154C49.2584 246.076 49.1039 246.037 48.9277 246.037C48.744 246.037 48.581 246.08 48.4389 246.165C48.2987 246.249 48.1888 246.361 48.1092 246.503C48.0297 246.644 47.9889 246.8 47.987 246.972V247.686C47.987 247.902 48.0268 248.088 48.1064 248.245C48.1879 248.403 48.3025 248.524 48.4503 248.609C48.5981 248.695 48.7733 248.737 48.9761 248.737C49.1106 248.737 49.2337 248.718 49.3455 248.68C49.4573 248.642 49.553 248.586 49.6326 248.51C49.7121 248.434 49.7728 248.341 49.8145 248.231L50.9342 248.305C50.8774 248.574 50.7608 248.809 50.5846 249.01C50.4103 249.209 50.1849 249.364 49.9082 249.476C49.6335 249.586 49.3162 249.641 48.9562 249.641ZM54.4697 246.685V247.646H51.8152V246.685H54.4697ZM55.5241 249.556V243.735H56.7547V246.137H59.2528V243.735H60.4805V249.556H59.2528V247.151H56.7547V249.556H55.5241ZM61.4724 249.556V245.19H62.6831V249.556H61.4724ZM62.0806 244.628C61.9006 244.628 61.7462 244.568 61.6174 244.449C61.4904 244.327 61.4269 244.182 61.4269 244.014C61.4269 243.847 61.4904 243.704 61.6174 243.585C61.7462 243.463 61.9006 243.403 62.0806 243.403C62.2606 243.403 62.4141 243.463 62.541 243.585C62.6698 243.704 62.7343 243.847 62.7343 244.014C62.7343 244.182 62.6698 244.327 62.541 244.449C62.4141 244.568 62.2606 244.628 62.0806 244.628ZM65.9749 245.19V246.1H63.346V245.19H65.9749ZM63.9428 244.144H65.1535V248.214C65.1535 248.326 65.1706 248.413 65.2047 248.476C65.2388 248.536 65.2862 248.579 65.3468 248.604C65.4093 248.628 65.4813 248.641 65.5628 248.641C65.6196 248.641 65.6765 248.636 65.7333 248.626C65.7901 248.615 65.8337 248.606 65.864 248.601L66.0545 249.502C65.9938 249.521 65.9086 249.542 65.7987 249.567C65.6888 249.594 65.5552 249.61 65.398 249.615C65.1062 249.627 64.8504 249.588 64.6306 249.499C64.4127 249.41 64.2431 249.271 64.1219 249.084C64.0006 248.896 63.9409 248.659 63.9428 248.373V244.144ZM68.6386 249.556V243.735H69.8692V246.302H69.9459L72.0405 243.735H73.5155L71.3555 246.341L73.541 249.556H72.0689L70.4745 247.163L69.8692 247.902V249.556H68.6386ZM74.4072 249.556V245.19H75.6179V249.556H74.4072ZM75.0153 244.628C74.8354 244.628 74.6809 244.568 74.5521 244.449C74.4252 244.327 74.3617 244.182 74.3617 244.014C74.3617 243.847 74.4252 243.704 74.5521 243.585C74.6809 243.463 74.8354 243.403 75.0153 243.403C75.1953 243.403 75.3488 243.463 75.4758 243.585C75.6046 243.704 75.669 243.847 75.669 244.014C75.669 244.182 75.6046 244.327 75.4758 244.449C75.3488 244.568 75.1953 244.628 75.0153 244.628ZM77.7984 243.735V249.556H76.5877V243.735H77.7984ZM79.9789 243.735V249.556H78.7682V243.735H79.9789ZM84.5809 246.435L83.4725 246.503C83.4535 246.409 83.4128 246.323 83.3503 246.248C83.2877 246.17 83.2053 246.108 83.103 246.063C83.0026 246.015 82.8823 245.992 82.7421 245.992C82.5545 245.992 82.3963 246.032 82.2675 246.111C82.1386 246.189 82.0742 246.293 82.0742 246.424C82.0742 246.528 82.1159 246.616 82.1993 246.688C82.2826 246.76 82.4257 246.818 82.6284 246.861L83.4185 247.021C83.8429 247.108 84.1593 247.248 84.3677 247.441C84.5761 247.634 84.6803 247.888 84.6803 248.203C84.6803 248.489 84.596 248.74 84.4274 248.956C84.2607 249.172 84.0314 249.341 83.7396 249.462C83.4497 249.581 83.1153 249.641 82.7364 249.641C82.1585 249.641 81.6981 249.521 81.3552 249.28C81.0141 249.037 80.8142 248.708 80.7555 248.291L81.9463 248.228C81.9823 248.405 82.0695 248.539 82.2078 248.632C82.3461 248.723 82.5232 248.768 82.7392 248.768C82.9514 248.768 83.122 248.728 83.2508 248.646C83.3815 248.563 83.4478 248.456 83.4497 248.325C83.4478 248.215 83.4014 248.125 83.3105 248.055C83.2195 247.983 83.0793 247.928 82.8899 247.89L82.1339 247.74C81.7076 247.654 81.3902 247.507 81.1818 247.296C80.9753 247.086 80.872 246.818 80.872 246.492C80.872 246.212 80.9478 245.97 81.0994 245.767C81.2529 245.565 81.4679 245.408 81.7445 245.298C82.0231 245.188 82.3489 245.133 82.7222 245.133C83.2735 245.133 83.7074 245.25 84.0238 245.483C84.3421 245.716 84.5278 246.033 84.5809 246.435Z" fill="white" fill-opacity="0.5"/>
<path fill-rule="evenodd" clip-rule="evenodd" d="M95.3017 244.994C95.1813 245.113 95.1211 245.259 95.1211 245.43C95.1211 245.601 95.1813 245.747 95.3017 245.866C95.4221 245.986 95.5671 246.046 95.7368 246.046C95.9065 246.046 96.0515 245.986 96.1719 245.866C96.2922 245.747 96.3524 245.601 96.3524 245.43C96.3524 245.259 96.2922 245.113 96.1719 244.994C96.0515 244.874 95.9065 244.814 95.7368 244.814C95.5671 244.814 95.4221 244.874 95.3017 244.994ZM96.1985 248.871H97.1219V249.487H94.3516V248.871H95.2751V247.024H94.3697V246.409H95.2751H95.5886H96.1985V248.871Z" fill="white" fill-opacity="0.5"/>
<path d="M187.735 7.35183L185.009 10.0782L187.735 12.8047L187.416 13.1233L184.69 10.3969L181.963 13.1233L181.645 12.8047L184.371 10.0782L181.645 7.35183L181.963 7.0332L184.69 9.75962L187.416 7.0332L187.735 7.35183Z" fill="white" fill-opacity="0.3"/>
</g>
</g>
<defs>
<linearGradient id="paint0_linear_152_492" x1="22.9312" y1="38.7848" x2="13.0812" y2="28.9348" gradientUnits="userSpaceOnUse">
<stop stop-color="#8599FF"/>
<stop offset="1" stop-color="#3C5CFF"/>
</linearGradient>
<linearGradient id="paint1_linear_152_492" x1="21.0821" y1="36.9375" x2="18.6196" y2="32.0125" gradientUnits="userSpaceOnUse">
<stop stop-color="#8599FF"/>
<stop offset="1" stop-color="#3C5CFF"/>
</linearGradient>
<linearGradient id="paint2_linear_152_492" x1="19.8501" y1="31.3965" x2="19.1112" y2="33.6127" gradientUnits="userSpaceOnUse">
<stop stop-color="#8599FF"/>
<stop offset="1" stop-color="#526EFF"/>
</linearGradient>
<linearGradient id="paint3_linear_152_492" x1="68.9508" y1="46.1719" x2="58.1112" y2="64.324" gradientUnits="userSpaceOnUse">
<stop stop-color="#8599FF"/>
<stop offset="1" stop-color="#3C5CFF"/>
</linearGradient>
<linearGradient id="paint4_linear_152_492" x1="108.392" y1="221.625" x2="107.727" y2="231.43" gradientUnits="userSpaceOnUse">
<stop stop-color="#8599FF"/>
<stop offset="1" stop-color="#3C5CFF"/>
</linearGradient>
<clipPath id="clip0_152_492">
<rect width="197" height="282" fill="white"/>
</clipPath>
</defs>
</svg>
