<svg width="600" height="581" viewBox="0 0 600 581" fill="none" xmlns="http://www.w3.org/2000/svg">
<path d="M473.532 197.58C397.632 162.48 288.432 140.18 185.732 148.48C190.832 114.48 203.632 90.7803 224.432 85.7803C253.132 78.8803 284.432 97.7803 314.232 132.08C333.732 134.58 356.932 139.08 373.132 142.78C318.732 40.4803 245.732 -16.8197 190.232 4.38028C148.032 20.4803 126.432 78.5803 129.032 156.68C74.0316 168.38 31.1316 189.18 3.63158 219.08C2.23158 220.68 -0.86842 224.78 0.23158 226.68C1.13158 228.18 3.83158 226.48 5.13158 225.68C36.9316 203.38 77.7316 191.38 130.832 183.78C138.432 267.08 173.632 372.78 232.232 457.58C200.232 470.18 173.332 470.98 158.632 455.38C138.332 433.98 139.032 397.38 153.832 354.38C146.232 336.18 138.532 313.88 133.732 298.08C72.1316 396.38 58.9316 488.28 105.032 525.78C140.132 554.28 201.232 543.98 267.532 502.68C305.132 544.48 344.632 571.18 384.232 579.98C386.332 580.38 391.432 581.08 392.532 579.18C393.432 577.68 390.532 576.08 389.232 575.48C354.032 559.08 323.232 529.78 290.132 487.58C358.532 439.38 432.432 355.98 476.532 262.88C503.432 284.38 517.532 307.18 511.432 327.78C503.032 356.08 471.032 373.78 426.332 382.38C414.332 398.08 398.932 415.88 387.632 427.98C503.432 431.98 589.632 397.48 599.032 338.88C606.232 294.28 566.632 246.48 497.732 209.68C515.132 156.18 518.532 108.68 506.332 69.9803C505.632 67.9803 503.732 63.1803 501.432 63.1803C499.732 63.1803 499.732 66.4803 499.832 67.8803C503.432 106.48 493.532 147.88 473.532 197.58ZM260.232 444.28C211.232 365.68 183.032 273.08 183.132 179.48C275.732 176.38 370.032 198.18 451.032 245.18C407.432 326.88 341.432 397.68 260.232 444.28Z" fill="white"/>
</svg>
