<?xml version="1.0" encoding="UTF-8"?>
<!DOCTYPE svg PUBLIC "-//W3C//DTD SVG 1.1//EN" "http://www.w3.org/Graphics/SVG/1.1/DTD/svg11.dtd">
<svg version="1.1" xmlns="http://www.w3.org/2000/svg" xmlns:xlink="http://www.w3.org/1999/xlink" x="0" y="0" width="14" height="14" viewBox="0, 0, 14, 14">
  <g id="Page-1">
    <path d="M2,0 L12,0 C13.105,0 14,0.895 14,2 L14,12 C14,13.105 13.105,14 12,14 L2,14 C0.895,14 0,13.105 0,12 L0,2 C0,0.895 0.895,0 2,0 z M8.853,2 L5.5,2 L5.5,12 L8.853,12 L8.853,10.824 L6.853,10.824 L6.853,7.588 L8.794,7.588 L8.794,6.235 L6.853,6.235 L6.853,3.176 L8.853,3.118 L8.853,2 z" fill="#FFFFFF" id="Combined-Shape"/>
  </g>
</svg>
