<?xml version="1.0" encoding="UTF-8"?>
<!DOCTYPE svg PUBLIC "-//W3C//DTD SVG 1.1//EN" "http://www.w3.org/Graphics/SVG/1.1/DTD/svg11.dtd">
<svg version="1.1" xmlns="http://www.w3.org/2000/svg" xmlns:xlink="http://www.w3.org/1999/xlink" x="0" y="0" width="14" height="14" viewBox="0, 0, 14, 14">
  <g id="Page-1">
    <path d="M2,0 L12,0 C13.105,0 14,0.895 14,2 L14,12 C14,13.105 13.105,14 12,14 L2,14 C0.895,14 0,13.105 0,12 L0,2 C0,0.895 0.895,0 2,0 z M10.155,10.317 L10.155,10.317 L10.155,3.683 C10.155,3.03 9.624,2.5 8.971,2.5 L5.082,2.5 C4.429,2.5 3.9,3.03 3.9,3.683 L3.9,7.572 C3.9,8.225 4.429,8.754 5.082,8.754 L7.714,8.754 L7.714,7.229 L5.883,7.229 L5.878,7.229 C5.627,7.229 5.425,7.025 5.425,6.773 L5.425,6.77 L5.425,4.484 L5.425,4.481 C5.425,4.229 5.627,4.025 5.878,4.025 L5.883,4.025 L8.171,4.025 L8.176,4.025 C8.428,4.025 8.629,4.229 8.629,4.481 L8.629,4.484 L8.629,9.516 L8.629,9.519 C8.629,9.77 8.428,9.975 8.176,9.975 L8.171,9.975 L3.9,9.975 L3.9,11.5 L8.971,11.5 C9.624,11.5 10.155,10.972 10.155,10.317 z" fill="#FFFFFF" id="Combined-Shape"/>
  </g>
</svg>