<svg width="276" height="215" viewBox="0 0 276 215" fill="none" xmlns="http://www.w3.org/2000/svg">
<path d="M86.5396 56.6971H118.062L161.668 127.249L161.645 56.6971H192.925V157.868H161.692L117.854 87.316V157.868H86.5285L86.5396 56.6971ZM114.1 214.912C45.7026 214.89 0 166.418 0 107.648C0 48.8772 45.8068 -0.150268 113.996 0.000346098L161.645 0.0130423C229.834 -0.137761 275.641 48.8899 275.641 107.66C275.641 166.431 229.938 214.902 161.541 214.925L114.1 214.912ZM114.309 26.4372C60.1605 26.5415 26.9235 62.7328 26.9235 107.509C26.9235 152.273 59.952 188.765 114.309 188.568L161.333 188.581C215.689 188.766 248.729 152.285 248.729 107.521C248.729 62.7571 215.492 26.5657 161.344 26.4614L114.309 26.4372Z" fill="white"/>
</svg>
