<?xml version="1.0" encoding="UTF-8"?>
<!DOCTYPE svg PUBLIC "-//W3C//DTD SVG 1.1//EN" "http://www.w3.org/Graphics/SVG/1.1/DTD/svg11.dtd">
<svg width="15" height="15" viewBox="0 0 15 15" xmlns="http://www.w3.org/2000/svg">
<path fill-rule="evenodd" clip-rule="evenodd" d="M2 0C0.895431 0 0 0.89543 0 2V13C0 14.1046 0.89543 15 2 15H13C14.1046 15 15 14.1046 15 13V2C15 0.895431 14.1046 0 13 0H2ZM3.92581 4.00681H9.0298L8.24952 5.25132H3.15139L3.92581 4.00681ZM6.95268 8.98699L10.0729 4.01868L14.1632 10.2283H12.6542L11.8329 8.98699H9.46736L10.2239 7.74141H11.0227L10.1368 6.39656L7.70707 10.2283H1.12891L2.70514 7.74141H1.56908L2.36132 6.49644H7.15693L6.36453 7.74141H4.29015L3.49166 8.98699H6.95268Z" fill="#FFFFFF"/>
</svg>
