<svg width="198" height="153" viewBox="0 0 198 153" fill="none" xmlns="http://www.w3.org/2000/svg">
<path fill-rule="evenodd" clip-rule="evenodd" d="M196.239 116.962C192.371 121.842 182.896 125.322 182.896 125.322L112.404 150.642V131.97L164.281 113.486C170.168 111.376 171.072 108.395 166.287 106.829C161.511 105.26 152.862 105.71 146.971 107.828L112.404 120.002V100.623L114.397 99.9486C114.397 99.9486 124.385 96.4137 138.431 94.8576C152.476 93.3105 169.673 95.069 183.174 100.187C198.389 104.995 200.102 112.082 196.239 116.962ZM119.115 85.1659V37.4133C119.115 31.8051 118.08 26.6422 112.818 25.1805C108.789 23.8898 106.288 27.6316 106.288 33.2352V152.819L74.0378 142.583V0C87.7502 2.54549 107.727 8.56291 118.467 12.1833C145.779 21.5602 155.039 33.2307 155.039 59.5266C155.039 85.1569 139.218 94.8711 119.115 85.1659ZM14.862 130.018C-0.757207 125.619 -3.35666 116.454 3.7626 111.174C10.3422 106.299 21.5315 102.629 21.5315 102.629L67.773 86.1867V104.932L34.4973 116.841C28.6193 118.95 27.7154 121.936 32.4915 123.501C37.2722 125.066 45.925 124.621 51.812 122.507L67.773 116.715V133.485C66.7611 133.665 65.6323 133.845 64.5889 134.02C48.6234 136.629 31.619 135.54 14.862 130.018ZM185.967 137.443C187.987 137.443 189.88 138.225 191.306 139.669C192.731 141.09 193.518 142.988 193.518 145.003C193.518 147.027 192.731 148.915 191.306 150.337C189.88 151.771 187.987 152.554 185.967 152.554C183.948 152.554 182.059 151.771 180.629 150.337C179.203 148.915 178.421 147.027 178.421 145.003C178.421 140.838 181.803 137.443 185.967 137.443ZM179.689 145.003C179.689 146.68 180.341 148.259 181.528 149.437C182.711 150.633 184.294 151.281 185.967 151.281C189.435 151.281 192.246 148.466 192.246 145.003C192.246 143.321 191.598 141.742 190.406 140.559C189.223 139.363 187.64 138.72 185.967 138.72C184.294 138.72 182.711 139.363 181.528 140.559C180.341 141.742 179.689 143.321 179.689 145.003ZM188.247 140.933C189.075 141.297 189.493 141.999 189.493 142.997C189.493 143.51 189.385 143.941 189.165 144.279C189.007 144.522 188.783 144.719 188.531 144.89C188.729 145.007 188.904 145.147 189.034 145.309C189.214 145.542 189.318 145.916 189.331 146.424L189.372 147.499C189.385 147.787 189.403 148.007 189.448 148.142C189.493 148.34 189.579 148.466 189.687 148.506L189.799 148.56V148.682V148.866V149.05H189.615H188.279H188.171L188.117 148.956C188.072 148.866 188.041 148.763 188.009 148.628C187.987 148.506 187.964 148.295 187.951 147.971L187.883 146.635C187.865 146.172 187.708 145.884 187.411 145.731C187.226 145.646 186.921 145.605 186.507 145.605H184.218V148.866V149.05H184.029H182.941H182.756V148.866V140.829V140.645H182.941H186.66C187.298 140.645 187.834 140.739 188.247 140.933ZM184.218 144.319H186.547C187.015 144.319 187.388 144.234 187.654 144.058C187.897 143.883 188.014 143.564 188.014 143.1C188.014 142.597 187.847 142.268 187.496 142.093C187.303 141.999 187.033 141.945 186.691 141.945H184.218V144.319Z" fill="white"/>
</svg>
