<svg xmlns="http://www.w3.org/2000/svg" width="15" height="15" viewBox="0 0 15 15">
  <path d="M13,0H2A2,2,0,0,0,0,2V13a2,2,0,0,0,2,2H13a2,2,0,0,0,2-2V2A2,2,0,0,0,13,0ZM11.15,10.88l.33,2.28L9.72,11.79,7.36,13.22l1.1-2.43L7.17,9.4h0a.91.91,0,0,1-.12-.55c0-.48.05-.87.05-1.17,0-.62-.29-.92-.88-.92H5L4.53,9.24H2.75L4.17,2.4H7.51a2.79,2.79,0,0,1,1.56.33A1.6,1.6,0,0,1,9.7,4.18,1.69,1.69,0,0,1,8.14,6.09h0q.69.18.69,1.14c0,.33,0,.76,0,1.27A1.78,1.78,0,0,0,9,9.4h.25l1.32-2.29.35,2.3h2.25Z" fill="#FFFFFF"/>
  <polygon points="10.56 9.83 10.34 8.4 9.53 9.81 8.24 9.81 9.03 10.65 8.38 12.06 9.79 11.22 10.89 12.09 10.69 10.65 11.84 9.83 10.56 9.83" fill="#FFFFFF"/>
  <path d="M7,3.83H5.68L5.34,5.48H6.76C7.55,5.48,8,5.16,8,4.54S7.63,3.83,7,3.83Z" fill="#FFFFFF"/>
</svg>
