<?xml version="1.0" encoding="UTF-8"?>
<svg width="14px" height="14px" viewBox="0 0 14 14" version="1.1" xmlns="http://www.w3.org/2000/svg" xmlns:xlink="http://www.w3.org/1999/xlink">
<g id="Page-1" stroke="none" stroke-width="1" fill="none" fill-rule="evenodd" opacity="1">
    <g id="Platform-icons" transform="translate(-40.000000, -40.000000)" fill="#FFFFFF" fill-rule="nonzero">
        <g id="Logo-icon-/-Stream" transform="translate(40.000000, 40.000000)">
            <path d="M4.15518359,11.4298242 C4.52629297,11.4298242 4.89053906,11.2502578 5.11183203,10.9182773 C5.46366406,10.3905156 5.32103906,9.6775 4.79330469,9.32566797 L3.88994922,8.72350391 C4.04455078,8.68139453 4.20705469,8.65842578 4.375,8.65842578 C5.39207812,8.65842578 6.21654687,9.48289453 6.21654687,10.5000547 C6.21654687,11.5172148 5.39205078,12.3416289 4.37497266,12.3416289 C3.38507422,12.3416289 2.57788672,11.560582 2.53544922,10.5810469 L3.51919531,11.2368594 C3.71500391,11.3673711 3.93626953,11.4298242 4.15518359,11.4298242 Z M11.6667578,0 C12.9501914,0 14,1.05016406 14,2.333625 L14,11.6664297 C14,12.9507109 12.9501914,14 11.6667578,14 L2.333625,14 C1.05016406,14 0,12.9506836 0,11.666457 L0,8.89068359 L1.65886328,9.99657422 C1.49955859,10.8602812 1.75371875,11.7852656 2.42172656,12.4532734 C3.50049219,13.5320391 5.24948047,13.5320391 6.32827344,12.4532734 C6.99092187,11.790707 7.24633984,10.8751289 7.09496484,10.0174375 L10.5,6.96877344 L10.5,6.96874609 C11.1322695,6.87799219 11.741625,6.58943359 12.228043,6.10301562 C13.4239492,4.90705469 13.4239492,2.96797266 12.228043,1.77198437 C11.0320273,0.575996094 9.09297266,0.575996094 7.89698437,1.77198437 C7.41056641,2.25840234 7.12195312,2.86773047 7.03122656,3.5 L4.23270312,7.74142578 C3.79728125,7.76373828 3.36620703,7.88858984 2.97863672,8.11589844 L0,6.13016797 L0,2.333625 C0,1.05016406 1.05013672,0 2.33359766,0 L11.6667578,0 Z M12.25,3.9375 C12.25,2.72937109 11.2706562,1.75 10.0625,1.75 C8.85434375,1.75 7.875,2.72937109 7.875,3.9375 C7.875,5.14562891 8.85434375,6.125 10.0625,6.125 C11.2706562,6.125 12.25,5.14562891 12.25,3.9375 Z M8.75,3.9375 C8.75,3.21261719 9.33761719,2.625 10.0625,2.625 C10.7873828,2.625 11.375,3.21261719 11.375,3.9375 C11.375,4.66238281 10.7873828,5.25 10.0625,5.25 C9.33761719,5.25 8.75,4.66238281 8.75,3.9375 Z" id="Shape"></path>
        </g>
    </g>
</g>
</svg>