<?xml version="1.0" encoding="UTF-8"?>
<!DOCTYPE svg PUBLIC "-//W3C//DTD SVG 1.1//EN" "http://www.w3.org/Graphics/SVG/1.1/DTD/svg11.dtd">
<svg version="1.1" xmlns="http://www.w3.org/2000/svg" xmlns:xlink="http://www.w3.org/1999/xlink" x="0" y="0" width="14" height="14" viewBox="0, 0, 14, 14">
  <g id="Layer_1">
    <path d="M11.828,0 C13.016,0 13.978,0.963 13.978,2.15 L13.978,11.828 C13.978,13.015 13.016,13.978 11.828,13.978 L2.15,13.978 C0.962,13.978 0,13.015 0,11.828 L0,2.15 C0,0.963 0.962,0 2.15,0 L11.828,0 z M8.5,2.204 C5.527,2.204 3.107,4.852 3.107,8.104 C3.107,10.982 6.699,12.74 8.65,12.74 C10.693,12.74 12.978,10.337 12.978,7.116 C12.978,4.001 9.58,2.204 8.5,2.204 z M6.511,5.551 L6.511,8.307 C6.511,8.505 6.672,8.666 6.871,8.666 L9.027,8.666 C9.226,8.666 9.387,8.505 9.387,8.307 L9.387,5.551 L10.586,5.551 L10.586,9.865 L6.871,9.865 C6.457,9.865 6.059,9.7 5.769,9.408 C5.478,9.116 5.312,8.72 5.312,8.307 L5.312,5.551 L6.511,5.551 z M2.817,1.478 C1.779,1.478 1,2.328 1,3.454 C1,4.479 2.054,4.952 2.763,4.952 C3.5,4.952 4.591,4.456 4.591,3.072 C4.591,1.813 3.43,1.478 2.817,1.478 z M5.672,0.998 C5.209,0.998 4.833,1.374 4.833,1.837 C4.833,2.299 5.209,2.675 5.672,2.675 C6.134,2.675 6.511,2.299 6.511,1.837 C6.511,1.374 6.134,0.998 5.672,0.998 z" fill="#FFFFFF"/>
  </g>
</svg>
