<?xml version="1.0" encoding="UTF-8"?>
<!DOCTYPE svg PUBLIC "-//W3C//DTD SVG 1.1//EN" "http://www.w3.org/Graphics/SVG/1.1/DTD/svg11.dtd">
<svg version="1.1" xmlns="http://www.w3.org/2000/svg" xmlns:xlink="http://www.w3.org/1999/xlink" x="0" y="0" width="14" height="14" viewBox="0, 0, 14, 14">
  <path d="M12,0 C13.105,0 14,0.895 14,2 L14,12 C14,13.105 13.105,14 12,14 L2,14 C0.895,14 0,13.105 0,12 L0,2 C0,0.895 0.895,0 2,0 L12,0 z M7.039,5.856 C6.922,5.83 5.844,6.793 5.071,7.613 C3.708,9.059 2.912,10.327 2.912,11.051 C2.912,11.411 3.064,11.592 3.737,12.031 C4.541,12.555 5.477,12.887 6.402,12.975 C7.176,13.049 8.115,12.954 8.831,12.728 C9.699,12.454 10.88,11.741 11.071,11.376 C11.321,10.896 10.828,9.82 9.755,8.505 C9.077,7.673 7.266,5.907 7.039,5.856 z M3.058,2.685 C2.685,2.791 2.84,2.697 2.584,2.948 C1.877,3.683 1.289,4.877 1.125,5.91 C0.994,6.738 0.978,6.969 1.023,7.372 C1.159,8.595 1.442,9.44 2.002,10.298 C2.232,10.65 2.295,10.717 2.226,10.537 C2.124,10.27 2.22,9.629 2.456,8.99 C2.89,7.814 4.042,5.914 5.134,4.574 L5.369,4.285 L4.938,3.896 C4.2,3.229 3.724,2.901 3.279,2.751 L3.058,2.685 z M11.102,2.669 C10.926,2.669 10.517,2.827 10.23,3.005 C9.867,3.231 9.531,3.497 9.046,3.942 L8.675,4.283 L9.018,4.714 C10.108,6.083 11.295,8.096 11.65,9.179 C11.814,9.679 11.883,10.174 11.828,10.444 C11.786,10.651 11.786,10.651 11.861,10.555 C12.008,10.369 12.342,9.797 12.476,9.502 C12.655,9.109 12.839,8.529 12.926,8.082 C13.032,7.538 13.023,6.369 12.908,5.823 C12.729,4.978 12.378,4.167 11.901,3.497 C11.592,3.065 11.21,2.669 11.102,2.669 z M6.696,1.013 C6.17,1.039 6.451,1.015 5.852,1.095 C5.319,1.208 4.925,1.338 4.454,1.561 C3.887,1.829 3.871,1.847 4.224,1.829 C4.387,1.821 4.644,1.836 4.794,1.861 C5.222,1.935 5.998,2.209 6.501,2.464 C6.753,2.593 6.974,2.7 6.991,2.703 C7.008,2.706 7.244,2.601 7.515,2.469 C8.413,2.033 9.25,1.801 9.823,1.83 L10.112,1.844 L9.986,1.767 C9.563,1.506 8.811,1.227 8.173,1.092 L7.645,1.023 C7.028,1.02 7.344,1.023 6.696,1.013 z" fill="#FFFFFF"/>
</svg>
